<?xml version="1.0" encoding="UTF-8"?>
<svg width="20px" height="20px" viewBox="0 0 20 20" version="1.1" xmlns="http://www.w3.org/2000/svg" xmlns:xlink="http://www.w3.org/1999/xlink">
    <!-- Generator: sketchtool 59.1 (101010) - https://sketch.com -->
    <title>CC87ED58-C866-4AC5-BF39-234BC14F3B90</title>
    <desc>Created with sketchtool.</desc>
    <defs>
        <linearGradient x1="100%" y1="53.7190083%" x2="0%" y2="46.4398692%" id="linearGradient-1">
            <stop stop-color="#FFD521" offset="0%"></stop>
            <stop stop-color="#FFEC42" offset="100%"></stop>
        </linearGradient>
        <linearGradient x1="0%" y1="48%" x2="100%" y2="52%" id="linearGradient-2">
            <stop stop-color="#FFD51D" offset="0%"></stop>
            <stop stop-color="#F7981F" offset="100%"></stop>
        </linearGradient>
    </defs>
    <g id="Concepts-2" stroke="none" stroke-width="1" fill="none" fill-rule="evenodd">
        <g id="Create-Location-Blank" transform="translate(-360.000000, -575.000000)">
            <g id="bar/line_item_selected" transform="translate(344.000000, 568.000000)">
                <g id="Group" transform="translate(16.000000, 3.500000)">
                    <g id="icon/antennas" transform="translate(0.000000, 3.000000)">
                        <rect id="Rectangle" fill="url(#linearGradient-1)" transform="translate(10.000000, 9.125000) rotate(-360.000000) translate(-10.000000, -9.125000) " x="3.125" y="7.25" width="13.75" height="3.75"></rect>
                        <path d="M17.1875,6.625 C17.360089,6.625 17.5,6.76491102 17.5,6.9375 L17.5,16 L17.5,16 L16.875,16 L16.875,6.9375 C16.875,6.76491102 17.014911,6.625 17.1875,6.625 Z" id="Rectangle" fill="#4A4A4A" transform="translate(17.187500, 11.312500) rotate(-360.000000) translate(-17.187500, -11.312500) "></path>
                        <path d="M2.8125,6.625 C2.98508898,6.625 3.125,6.76491102 3.125,6.9375 L3.125,16 L3.125,16 L2.5,16 L2.5,6.9375 C2.5,6.76491102 2.63991102,6.625 2.8125,6.625 Z" id="Rectangle" fill="#4A4A4A" transform="translate(2.812500, 11.312500) rotate(-360.000000) translate(-2.812500, -11.312500) "></path>
                        <path d="M15.3125,4.75 C15.485089,4.75 15.625,4.88991102 15.625,5.0625 L15.625,11 L15.625,11 L15,11 L15,5.0625 C15,4.88991102 15.139911,4.75 15.3125,4.75 Z" id="Rectangle" fill="#4A4A4A" transform="translate(15.312500, 7.875000) rotate(-360.000000) translate(-15.312500, -7.875000) "></path>
                        <path d="M4.6875,4.75 C4.86008898,4.75 5,4.88991102 5,5.0625 L5,11 L5,11 L4.375,11 L4.375,5.0625 C4.375,4.88991102 4.51491102,4.75 4.6875,4.75 Z" id="Rectangle" fill="#4A4A4A" transform="translate(4.687500, 7.875000) rotate(-360.000000) translate(-4.687500, -7.875000) "></path>
                        <polygon id="Rectangle" fill="url(#linearGradient-2)" transform="translate(3.437500, 16.312500) rotate(-180.000000) translate(-3.437500, -16.312500) " points="1.875 16 5 16 5 16.625 1.87755532 16.625"></polygon>
                        <polygon id="Rectangle" fill="#D8D8D8" transform="translate(3.437500, 16.312500) rotate(-270.000000) translate(-3.437500, -16.312500) " points="3.125 16 3.75 16 3.75 16.625 3.125 16.625"></polygon>
                        <polygon id="Rectangle" fill="url(#linearGradient-2)" transform="translate(16.562500, 16.312500) rotate(-180.000000) translate(-16.562500, -16.312500) " points="15 16 18.125 16 18.125 16.625 15.0025553 16.625"></polygon>
                        <polygon id="Rectangle" fill="#D8D8D8" transform="translate(16.562500, 16.312500) rotate(-270.000000) translate(-16.562500, -16.312500) " points="16.25 16 16.875 16 16.875 16.625 16.25 16.625"></polygon>
                    </g>
                </g>
            </g>
        </g>
    </g>
</svg>