<?xml version="1.0" encoding="UTF-8"?>
<svg width="18px" height="18px" viewBox="0 0 18 18" version="1.1" xmlns="http://www.w3.org/2000/svg" xmlns:xlink="http://www.w3.org/1999/xlink">
    <!-- Generator: Sketch 52.5 (67469) - http://www.bohemiancoding.com/sketch -->
    <title>icon/ball</title>
    <desc>Created with Sketch.</desc>
    <g id="icon/ball" stroke="none" stroke-width="1" fill="none" fill-rule="evenodd">
        <path d="M6.10565217,3.99713043 C8.73232609,4.37056522 10.7589783,6.56232609 10.7865217,9.21197826 C10.1922826,9.45956522 9.539,9.58632609 8.85863043,9.56563043 C8.44197826,7.40963043 6.79180435,5.68869565 4.674,5.16841304 C5.08441304,4.70565217 5.56756522,4.30954348 6.10565217,3.99713043 M13.6289783,5.53834783 C13.5480217,6.11493478 13.3637391,6.65591304 13.095,7.14271739 C12.7652391,5.59754348 11.8175,4.27104348 10.5158043,3.4203913 C11.7756522,3.76308696 12.8661304,4.5206087 13.6289783,5.53834783 M9.18504348,14.3204565 C9.48497826,14.3676304 9.78536957,14.3924348 10.0842391,14.3924348 C10.5575,14.3924348 11.0261957,14.3335435 11.4815,14.222 C10.8886304,14.5048913 10.2405217,14.6894783 9.55802174,14.7550652 C9.41878261,14.6199348 9.29567391,14.4738478 9.18504348,14.3204565 M8.79684783,13.6193913 C8.66704348,13.2952609 8.59186957,12.9531739 8.56858696,12.6071304 C8.94841304,12.6833696 9.32823913,12.7212609 9.7041087,12.7212609 C11.7015435,12.7212609 13.5813478,11.6822174 14.6946522,9.99704348 C14.5406522,10.8793478 14.1865435,11.6933261 13.6799565,12.3904348 C12.3657826,13.5682609 10.5412174,14.0687609 8.79684783,13.6193913 M14.4604565,7.10086957 C14.6185652,7.55358696 14.7212826,8.03186957 14.7616087,8.52765217 C13.8217826,11.0634783 11.1864348,12.565587 8.58441304,11.9882391 C8.63417391,11.5728043 8.76245652,11.1646739 8.97276087,10.7853043 C8.98036957,10.7853043 8.98813043,10.7860652 8.99573913,10.7860652 C11.4376739,10.7860652 13.5763261,9.27741304 14.4604565,7.10086957 M12.5911522,7.87954348 C12.2502826,8.28843478 11.8421522,8.63782609 11.3847174,8.91082609 C11.2299565,6.37119565 9.43019565,4.25765217 7.01215217,3.56936957 C7.52208696,3.38234783 8.06565217,3.26608696 8.63082609,3.23047826 C10.7760217,3.82304348 12.3886087,5.65658696 12.5911522,7.87954348 M5.6231087,11.2170217 C5.70208696,10.0463478 6.16013043,8.95541304 6.92647826,8.08132609 C7.41967391,8.77326087 7.71793478,9.6125 7.74152174,10.5196087 C7.13221739,11.8657391 7.2261087,13.4296304 7.96856522,14.6887174 C7.36276087,14.579 6.78921739,14.3761522 6.26436957,14.0931087 C5.77984783,13.2273913 5.55432609,12.2371957 5.6231087,11.2170217 M3.21769565,8.98128261 C3.2208913,7.99808696 3.4706087,7.0721087 3.90826087,6.26178261 C4.14869565,6.29328261 4.38334783,6.34365217 4.61008696,6.41243478 C3.91252174,7.14728261 3.44656522,8.03491304 3.21769565,8.98128261 M3.76765217,11.4588261 C3.42008696,9.72784783 3.91647826,7.90373913 5.22973913,6.65256522 C5.72217391,6.88828261 6.16378261,7.21332609 6.53493478,7.60547826 C5.64076087,8.59156522 5.10617391,9.83695652 5.01578261,11.176087 C4.96282609,11.9611522 5.06569565,12.7306957 5.3116087,13.4498696 C4.66167391,12.9102609 4.13195652,12.2309565 3.76765217,11.4588261 M9,2 C5.13386957,2 2,5.13402174 2,9 C2,11.1794348 2.99613043,13.1261957 4.55804348,14.4099348 C4.58071739,14.4365652 4.60217391,14.4636522 4.62530435,14.4898261 L4.64143478,14.4755217 C5.83752174,15.4288913 7.35165217,16 9,16 C12.8659783,16 16,12.8659783 16,9 C16,5.13402174 12.8659783,2 9,2" id="ball" fill="#4A4A4A"></path>
    </g>
</svg>