<?xml version="1.0" encoding="UTF-8"?>
<svg width="23px" height="23px" viewBox="0 0 23 23" version="1.1" xmlns="http://www.w3.org/2000/svg" xmlns:xlink="http://www.w3.org/1999/xlink">
    <!-- Generator: Sketch 52.5 (67469) - http://www.bohemiancoding.com/sketch -->
    <title>bell_active</title>
    <desc>Created with Sketch.</desc>
    <g id="bell_active" stroke="none" stroke-width="1" fill="none" fill-rule="evenodd">
        <path d="M11.6232738,16.8985143 C11.5793929,16.8985143 11.5361905,16.9010615 11.4938929,16.906352 C11.4515952,16.9010615 11.4083929,16.8985143 11.3645119,16.8985143 L6.01782143,16.8985143 C6.86286905,15.526911 6.86264286,13.3932841 6.86264286,11.3964256 C6.86264286,8.20627227 8.46158333,6.51351785 11.3645119,6.51351785 L11.6232738,6.51351785 C14.5264286,6.51351785 16.1251429,8.20627227 16.1251429,11.3964256 C16.1251429,13.3932841 16.1251429,15.526911 16.9699643,16.8985143 L11.6232738,16.8985143 Z M11.4531786,19.4306899 C11.1537024,19.4306899 11.0200238,19.3046983 10.9370119,19.2267129 C10.7596786,19.060161 10.658119,18.8579475 10.6045119,18.4660609 L11.3645119,18.4660609 C11.4083929,18.4660609 11.4515952,18.4633177 11.4938929,18.4580272 C11.5361905,18.4633177 11.5793929,18.4660609 11.6232738,18.4660609 L12.3611071,18.4660609 C12.2970952,18.8579475 12.1860357,19.0564381 11.9967143,19.2282804 C11.9055595,19.3111645 11.7614762,19.4306899 11.4531786,19.4306899 Z M17.98375,11.4277765 C17.98375,7.66997538 15.9334659,5.30846638 12.5406087,4.95831566 L12.5406087,3.96952555 C12.5406087,3.53609891 12.2162238,3 11.5,3 C10.7837762,3 10.4460643,3.53609891 10.4460643,3.96952555 C10.4460643,4.40295219 10.4460643,4.93519434 10.4460643,4.93519434 C6.82701668,5.18972473 5.10061905,7.57533475 5.10061905,11.4277765 C5.10061905,16.2203544 4.43991667,16.9937427 2.91742857,16.9937427 C2.41754762,16.9937427 2,17.2964752 2,17.7299018 C2,18.1633284 2.39334524,18.4660609 2.89322619,18.4660609 L8.77621429,18.4660609 C8.84610714,19.0538909 9.04967857,19.7765299 9.6,20.2973472 C10.069119,20.7411589 10.7099167,21 11.4531786,21 C12.1914643,21 12.8345238,20.7319495 13.3135952,20.2936243 C13.8842738,19.7710434 14.1106905,19.0538909 14.198,18.4660609 L20.0945595,18.4660609 C20.5946667,18.4660609 21,18.1633284 21,17.7299018 C21,17.2964752 20.5946667,16.9937427 20.0945595,16.9937427 C18.5722976,16.9937427 17.98375,16.2203544 17.98375,11.4277765 Z" id="bell" fill="#4A4A4A" transform="translate(11.500000, 12.000000) rotate(-345.000000) translate(-11.500000, -12.000000) "></path>
        <circle id="Oval" stroke="#F8F9FB" fill="#7ED321" cx="17" cy="7" r="2.5"></circle>
    </g>
</svg>