<?xml version="1.0" encoding="UTF-8"?>
<svg width="18px" height="18px" viewBox="0 0 18 18" version="1.1" xmlns="http://www.w3.org/2000/svg" xmlns:xlink="http://www.w3.org/1999/xlink">
    <!-- Generator: Sketch 52.5 (67469) - http://www.bohemiancoding.com/sketch -->
    <title>icon/broadcast</title>
    <desc>Created with Sketch.</desc>
    <g id="icon/broadcast" stroke="none" stroke-width="1" fill="none" fill-rule="evenodd">
        <path d="M14.7328478,8.39181395 C14.6345431,8.55280256 14.4126727,8.68340742 14.1979545,8.77455872 L13.8958882,7.7220106 C14.1256717,7.69449893 14.3808682,7.69631288 14.5506949,7.78398744 C14.6249561,7.82223168 14.707739,7.88526666 14.7585652,8.06227856 C14.8080219,8.2346044 14.7733262,8.32560454 14.7328478,8.39181395 M10.4132235,11.8269936 C9.73285146,11.8269936 9.04274028,11.8900286 8.23012865,12.0003776 L7.34203849,8.90561706 L7.12382031,8.14496473 C9.06708819,7.26791688 10.101418,6.5896484 11.7940546,4.80940149 L13.9575189,12.3489595 C12.5136876,11.9807264 11.4757056,11.8269936 10.4132235,11.8269936 M4.21409243,12.4910528 C3.76243862,12.2425408 3.43511136,11.8322843 3.29252389,11.3354115 C2.99943587,10.3140029 3.58956844,9.24482688 4.60715906,8.95217527 L5.97703357,8.55990723 L6.60642714,10.7538873 L7.03875479,12.2600757 L5.66477157,12.653553 C5.17568285,12.7939835 4.66042012,12.7365415 4.21409243,12.4910528 M15.9293956,7.73077805 C15.7974603,7.2710913 15.514568,6.91827681 15.1113056,6.71042765 C14.5910212,6.44241562 13.9806494,6.47431101 13.558974,6.54807857 L12.6667751,3.43880637 C12.6060575,3.22702698 12.4342525,3.06482906 12.2181648,3.01539875 C12.0022292,2.9661196 11.7762501,3.03701506 11.6283366,3.20087578 C9.44904609,5.61419342 8.55289069,6.20206641 6.15538204,7.25023081 L4.26933176,7.79033628 C2.60880403,8.26770911 1.64538751,10.0068397 2.12184575,11.666912 C2.35375963,12.4751807 2.88743547,13.1436235 3.62441639,13.5490428 C4.09402678,13.8073804 4.61035473,13.938741 5.13200878,13.938741 C5.37883576,13.938741 5.62688013,13.9074503 5.87172884,13.8480432 L6.07549045,14.5579048 C6.18277344,14.9317309 6.38912201,15.2700338 6.67231869,15.5362318 L6.98899374,15.8343253 C7.10677677,15.9451278 7.25727732,16 7.40762569,16 C7.56893062,16 7.7299312,15.9366627 7.84954032,15.8111974 C8.08084551,15.5687319 8.07034547,15.1859871 7.8264098,14.9563705 L7.50927823,14.6581259 C7.38464734,14.5409745 7.29364701,14.3916254 7.24616858,14.2265554 L7.04271133,13.5174497 L7.91969275,13.2663679 C10.4450279,12.8922394 11.5828364,12.9183906 14.6715215,13.7955897 C14.7267608,13.8111594 14.7829132,13.8188688 14.8387612,13.8188688 C14.9979357,13.8188688 15.153458,13.7567408 15.2691106,13.6418569 C15.4253937,13.4867636 15.484894,13.2595656 15.4243285,13.0483908 L14.533347,9.94395585 C14.9341746,9.79385097 15.4686113,9.51419938 15.7703732,9.02473352 C16.0070045,8.64062828 16.0620917,8.19318574 15.9293956,7.73077805" id="broadcast" fill="#4A4A4A"></path>
    </g>
</svg>