<?xml version="1.0" encoding="UTF-8"?>
<svg width="18px" height="18px" viewBox="0 0 18 18" version="1.1" xmlns="http://www.w3.org/2000/svg" xmlns:xlink="http://www.w3.org/1999/xlink">
    <!-- Generator: Sketch 52.5 (67469) - http://www.bohemiancoding.com/sketch -->
    <title>icon/clipboard</title>
    <desc>Created with Sketch.</desc>
    <g id="icon/clipboard" stroke="none" stroke-width="1" fill="none" fill-rule="evenodd">
        <path d="M14.4,14.7826087 L3.6,14.7826087 L3.6,4.58695652 L3.9344,4.58695652 L5.0636,6.10717391 C5.0702,6.11584783 5.0768,6.11265217 5.0838,6.12102174 C5.4826,6.59702174 6.1626,6.86956522 6.903,6.86956522 L11.2376,6.86956522 C12.0054,6.86956522 12.7214,6.57313043 13.1062,6.06608696 C13.1132,6.05680435 13.12,6.04295652 13.1262,6.03336957 L14.0906,4.58695652 L14.4,4.58695652 L14.4,14.7826087 Z M6.5214,4.58695652 C6.8574,4.58695652 7.1578,4.44102174 7.2728,4.2008913 L7.7512,3.2173913 L10.4288,3.2173913 L10.9072,4.2008913 C11.0222,4.44102174 11.3226,4.58695652 11.6586,4.58695652 L12.2954,4.58695652 L11.712,5.4545 C11.6104,5.57973913 11.4302,5.65217391 11.2376,5.65217391 L6.903,5.65217391 C6.7172,5.65217391 6.5458,5.58719565 6.4416,5.46971739 L5.7764,4.58695652 L6.5214,4.58695652 Z M15.2,3.36956522 L13.6,3.36956522 L13.3998,3.36956522 L12.2182,3.36956522 L11.9034,2.72708696 C11.6908,2.28380435 11.1322,2 10.5132,2 L7.6668,2 C7.0476,2 6.489,2.28395652 6.2766,2.72708696 L5.9618,3.36956522 L4.5994,3.36956522 L4.3992,3.36956522 L2.8,3.36956522 C2.3582,3.36956522 2,3.66980435 2,4.00595652 L2,15.3913043 C2,15.7274565 2.3582,16 2.8,16 L15.2,16 C15.6418,16 16,15.7274565 16,15.3913043 L16,4.00595652 C16,3.66980435 15.6418,3.36956522 15.2,3.36956522 L15.2,3.36956522 Z" id="clipboard" fill="#4A4A4A"></path>
    </g>
</svg>