<?xml version="1.0" encoding="UTF-8"?>
<svg width="20px" height="21px" viewBox="0 0 20 21" version="1.1" xmlns="http://www.w3.org/2000/svg" xmlns:xlink="http://www.w3.org/1999/xlink">
    <!-- Generator: sketchtool 59.1 (101010) - https://sketch.com -->
    <title>F41B45B2-5E04-427C-AEB8-E54C12477DDE</title>
    <desc>Created with sketchtool.</desc>
    <defs>
        <linearGradient x1="0%" y1="68.1483157%" x2="100%" y2="31.8516843%" id="linearGradient-1">
            <stop stop-color="#FFD51D" offset="0%"></stop>
            <stop stop-color="#F7981F" offset="100%"></stop>
        </linearGradient>
        <linearGradient x1="100%" y1="45.4369119%" x2="0%" y2="54.5630881%" id="linearGradient-2">
            <stop stop-color="#FFD521" offset="0%"></stop>
            <stop stop-color="#FFEC42" offset="100%"></stop>
        </linearGradient>
        <linearGradient x1="87.3494898%" y1="100%" x2="12.6505102%" y2="0%" id="linearGradient-3">
            <stop stop-color="#FBB12E" offset="0%"></stop>
            <stop stop-color="#FFD31D" offset="100%"></stop>
        </linearGradient>
        <linearGradient x1="38.3780395%" y1="8.17871094%" x2="79.5857988%" y2="100%" id="linearGradient-4">
            <stop stop-color="#FFEB42" offset="0%"></stop>
            <stop stop-color="#FFD31D" offset="100%"></stop>
        </linearGradient>
    </defs>
    <g id="Concepts-2" stroke="none" stroke-width="1" fill="none" fill-rule="evenodd">
        <g id="Create-League-Blank" transform="translate(-360.000000, -678.000000)">
            <g id="bar/line_item_selected" transform="translate(344.000000, 672.000000)">
                <g id="Group" transform="translate(16.000000, 3.500000)">
                    <g id="icon/coed-max" transform="translate(0.000000, 3.000000)">
                        <path d="M8.92885397,5.18799267 C9.27062584,5.18799267 9.54768668,5.46505351 9.54768668,5.80682538 L9.54699267,7.06199267 L13.9370073,7.06299267 C14.6273633,7.06299267 15.1870073,7.62263673 15.1870073,8.31299267 C15.1870073,9.00334861 14.6273633,9.56299267 13.9370073,9.56299267 L9.54699267,9.56199267 L9.54768668,10.81916 C9.54768668,11.1609318 9.27062584,11.4379927 8.92885397,11.4379927 C8.52845972,11.4379927 8.14018647,11.3006191 7.82888195,11.0488155 L5.405678,9.08876844 C4.97627939,8.74144254 4.9097463,8.11178292 5.2570722,7.68238431 C5.30140088,7.6275808 5.35139972,7.57761776 5.40623495,7.53332834 L7.82860337,5.57682519 C8.14010843,5.32522819 8.52843362,5.18799267 8.92885397,5.18799267 Z" id="Combined-Shape" fill="url(#linearGradient-1)" transform="translate(10.000000, 8.312993) rotate(-270.000000) translate(-10.000000, -8.312993) "></path>
                        <path d="M7.43388963,9.87602049 L7.47165684,9.87785347 L7.40704299,9.87835838 L7.40704299,9.87835838 L7.43388963,9.87602049 Z M13.6359043,6.74602049 C13.6359043,7.44514072 13.0691554,8.01188963 12.3700351,8.01188963 L8.05288963,8.01102049 L8.05318168,9.22715089 C8.05318168,9.55231205 7.81477479,9.82214929 7.50270805,9.87062316 L7.43388963,9.87602049 L7.29958355,9.87134301 C6.90018435,9.83909386 6.51794067,9.6882371 6.20365931,9.43554845 C4.75750852,8.27281359 3.91309149,7.58992732 3.67040823,7.38688963 C3.26188963,7.04510806 3.26188963,7.04510806 3.26188963,6.74602049 C4.0494174,6.75900284 5.00695292,6.76347535 6.13449619,6.75943802 L6.13590429,6.74602049 L13.6359043,6.74602049 Z" id="Combined-Shape" fill="url(#linearGradient-2)" transform="translate(8.448897, 8.312993) rotate(-270.000000) translate(-8.448897, -8.312993) "></path>
                        <g id="Group" transform="translate(1.250000, 10.375000)">
                            <path d="M3.4375,5.26988636 C5.33597883,5.26988636 6.875,6.80890754 6.875,8.70738636 L6.875,8.75 L0,8.75 L0,8.70738636 C-2.32496602e-16,6.80890754 1.53902117,5.26988636 3.4375,5.26988636 Z M3.4375,0.795454545 C4.49221046,0.795454545 5.34722222,1.68579737 5.34722222,2.78409091 C5.34722222,3.88238445 4.49221046,4.77272727 3.4375,4.77272727 C2.38278954,4.77272727 1.52777778,3.88238445 1.52777778,2.78409091 C1.52777778,1.68579737 2.38278954,0.795454545 3.4375,0.795454545 Z" id="Combined-Shape" fill="url(#linearGradient-3)"></path>
                            <path d="M4.73823559,2.9970554 C5.09121628,3.25351088 4.95349512,2.37119475 4.32507213,0.350107023 C4.1033776,0.596722875 3.98769451,0.972785857 3.97802285,1.47829597 C3.96351536,2.23656114 4.20876457,2.61237218 4.73823559,2.9970554 Z" id="Oval" fill="#D8D8D8" transform="translate(4.453043, 1.695239) rotate(144.000000) translate(-4.453043, -1.695239) "></path>
                            <path d="M2.65890051,3.18205144 C3.53297762,1.426573 3.06970555,0.453671661 2.26765531,0.437994872 C1.79304168,1.05320085 1.85361343,1.33275439 1.91342979,1.9428152 C2.01452042,2.48152191 2.31971723,2.8801915 2.65890051,3.18205144 Z" id="Oval" fill="#D8D8D8" transform="translate(2.502007, 1.810023) rotate(52.000000) translate(-2.502007, -1.810023) "></path>
                            <rect id="Rectangle" stroke="#FFFFFF" stroke-width="0.622222222" fill="#D8D8D8" x="3.89027778" y="7.35795455" width="1" height="1"></rect>
                        </g>
                        <g id="Group-2" transform="translate(12.500000, 11.000000)">
                            <path d="M3.125,4.73958333 C4.85088984,4.73958333 6.25,6.13869349 6.25,7.86458333 L6.25,8.125 L0,8.125 L0,7.86458333 C-2.11360547e-16,6.13869349 1.39911016,4.73958333 3.125,4.73958333 Z M3.17307692,0 C4.23516298,0 5.09615385,0.909421602 5.09615385,2.03125 C5.09615385,3.1530784 4.23516298,4.0625 3.17307692,4.0625 C2.11099087,4.0625 1.25,3.1530784 1.25,2.03125 C1.25,0.909421602 2.11099087,0 3.17307692,0 Z" id="Combined-Shape" fill="url(#linearGradient-4)"></path>
                            <path d="M5.06952726,1.67112574 C5.06952726,1.35416667 4.6173976,-1.0658141e-14 3.12811045,-1.0658141e-14 C1.63882329,-1.0658141e-14 1.3852633,1.31273746 1.30494925,1.49630216 C1.2246352,1.67986685 3.15431347,1.42962706 3.65177509,1.53939962 C3.91785964,1.59811528 3.91785964,1.87046885 3.65177509,2.35646033 C4.5969432,2.1765713 5.06952726,1.94812644 5.06952726,1.67112574 Z" id="Oval" fill="#4A4A4A"></path>
                        </g>
                    </g>
                </g>
            </g>
        </g>
    </g>
</svg>