<?xml version="1.0" encoding="UTF-8"?>
<svg width="20px" height="21px" viewBox="0 0 20 21" version="1.1" xmlns="http://www.w3.org/2000/svg" xmlns:xlink="http://www.w3.org/1999/xlink">
    <!-- Generator: sketchtool 59.1 (101010) - https://sketch.com -->
    <title>E6EA2BD1-C1B5-40D4-9815-FDA0DFE73425</title>
    <desc>Created with sketchtool.</desc>
    <defs>
        <linearGradient x1="100%" y1="51.6528926%" x2="0%" y2="48.4177196%" id="linearGradient-1">
            <stop stop-color="#FFD521" offset="0%"></stop>
            <stop stop-color="#FFEC42" offset="100%"></stop>
        </linearGradient>
        <linearGradient x1="0%" y1="0%" x2="100%" y2="100%" id="linearGradient-2">
            <stop stop-color="#FFD51D" offset="0%"></stop>
            <stop stop-color="#F7981F" offset="100%"></stop>
        </linearGradient>
    </defs>
    <g id="Concepts-2" stroke="none" stroke-width="1" fill="none" fill-rule="evenodd">
        <g id="Create-League-Division-view-" transform="translate(-360.000000, -626.000000)">
            <g id="bar/line_item" transform="translate(344.000000, 619.000000)">
                <g id="Group" transform="translate(16.000000, 3.500000)">
                    <g id="icon/courts" transform="translate(0.000000, 3.000000)">
                        <rect id="Rectangle" fill="url(#linearGradient-1)" transform="translate(10.000000, 16.000000) rotate(-360.000000) translate(-10.000000, -16.000000) " x="3.125" y="14.75" width="13.75" height="2.5"></rect>
                        <rect id="Rectangle" fill="#4A4A4A" transform="translate(17.187500, 16.312500) rotate(-360.000000) translate(-17.187500, -16.312500) " x="16.875" y="14.75" width="1" height="3.125"></rect>
                        <rect id="Rectangle" fill="#4A4A4A" transform="translate(2.812500, 16.312500) rotate(-360.000000) translate(-2.812500, -16.312500) " x="2.5" y="14.75" width="1" height="3.125"></rect>
                        <rect id="Rectangle" fill="url(#linearGradient-1)" transform="translate(10.000000, 5.375000) rotate(-360.000000) translate(-10.000000, -5.375000) " x="3.125" y="4.125" width="13.75" height="2.5"></rect>
                        <rect id="Rectangle" fill="#4A4A4A" transform="translate(17.187500, 5.687500) rotate(-360.000000) translate(-17.187500, -5.687500) " x="16.875" y="4.125" width="1" height="3.125"></rect>
                        <rect id="Rectangle" fill="#4A4A4A" transform="translate(2.812500, 5.687500) rotate(-360.000000) translate(-2.812500, -5.687500) " x="2.5" y="4.125" width="1" height="3.125"></rect>
                        <circle id="Oval" fill="url(#linearGradient-2)" cx="6.875" cy="11" r="1.875"></circle>
                        <circle id="Oval" fill="url(#linearGradient-2)" cx="13.125" cy="11" r="1.875"></circle>
                    </g>
                </g>
            </g>
        </g>
    </g>
</svg>