<?xml version="1.0" encoding="UTF-8"?>
<svg width="32px" height="32px" viewBox="0 0 32 32" version="1.1" xmlns="http://www.w3.org/2000/svg" xmlns:xlink="http://www.w3.org/1999/xlink">
    <!-- Generator: Sketch 52.5 (67469) - http://www.bohemiancoding.com/sketch -->
    <title>icon/credit_card</title>
    <desc>Created with Sketch.</desc>
    <defs>
        <linearGradient x1="0%" y1="0%" x2="100%" y2="100%" id="linearGradient-1">
            <stop stop-color="#FFEC43" offset="0%"></stop>
            <stop stop-color="#FFD420" offset="100%"></stop>
        </linearGradient>
        <linearGradient x1="0%" y1="100%" x2="98.2704118%" y2="1.72958815%" id="linearGradient-2">
            <stop stop-color="#FFD51D" offset="0%"></stop>
            <stop stop-color="#F7981F" offset="100%"></stop>
        </linearGradient>
    </defs>
    <g id="icon/credit_card" stroke="none" stroke-width="1" fill="none" fill-rule="evenodd">
        <g id="Group" transform="translate(2.000000, 4.000000)">
            <rect id="Rectangle" fill="url(#linearGradient-1)" x="3.5" y="0" width="24.5" height="16" rx="1"></rect>
            <rect id="Rectangle" fill="url(#linearGradient-2)" x="0" y="8" width="24.5" height="16" rx="1"></rect>
            <rect id="Rectangle" fill="#D8D8D8" x="16.625" y="9.77777778" width="5.25" height="3.55555556" rx="1"></rect>
            <rect id="Rectangle" fill="#D8D8D8" x="1.75" y="9.77777778" width="5.25" height="1"></rect>
            <rect id="Rectangle" fill="#D8D8D8" x="1.75" y="12.4444444" width="3.5" height="1.77777778"></rect>
            <polygon id="Rectangle" fill="#FFFFFF" points="3 20 6.01538086 20 6.01538086 21.0184937 3 21.0184937"></polygon>
            <rect id="Rectangle" fill="#FFFFFF" x="18" y="20" width="3" height="1"></rect>
            <polygon id="Rectangle" fill="#FFFFFF" points="9 20 11.015686 20 11.015686 21.0240479 9 21.0240479"></polygon>
            <rect id="Rectangle" fill="#FFFFFF" x="14" y="20" width="2" height="1"></rect>
            <rect id="Rectangle" fill="#4A4A4A" x="3.5" y="2.66666667" width="24.5" height="2.66666667"></rect>
        </g>
    </g>
</svg>