<?xml version="1.0" encoding="UTF-8"?>
<svg width="18px" height="18px" viewBox="0 0 18 18" version="1.1" xmlns="http://www.w3.org/2000/svg" xmlns:xlink="http://www.w3.org/1999/xlink">
    <!-- Generator: Sketch 52.5 (67469) - http://www.bohemiancoding.com/sketch -->
    <title>icon/date</title>
    <desc>Created with Sketch.</desc>
    <g id="icon/date" stroke="none" stroke-width="1" fill="none" fill-rule="evenodd">
        <path d="M6.03983333,10.9230769 L11.96,10.9230769 C12.3281667,10.9230769 12.6266667,10.6475385 12.6266667,10.3076923 C12.6266667,9.96784615 12.3281667,9.69230769 11.96,9.69230769 L6.03983333,9.69230769 C5.67166667,9.69230769 5.37316667,9.96784615 5.37316667,10.3076923 C5.37316667,10.6475385 5.67166667,10.9230769 6.03983333,10.9230769 M8.4505,4.30769231 L9.54933333,4.30769231 C9.9175,4.30769231 10.216,4.03215385 10.216,3.69230769 C10.216,3.35246154 9.9175,3.07692308 9.54933333,3.07692308 L8.4505,3.07692308 C8.08233333,3.07692308 7.78383333,3.35246154 7.78383333,3.69230769 C7.78383333,4.03215385 8.08233333,4.30769231 8.4505,4.30769231 M15.3333333,3.07692308 L13.9418333,3.07692308 C13.5736667,3.07692308 13.2751667,3.35246154 13.2751667,3.69230769 C13.2751667,4.03215385 13.5736667,4.30769231 13.9418333,4.30769231 L14.6666667,4.30769231 L14.6666667,14.7692308 L3.33333333,14.7692308 L3.33333333,4.30769231 L4.058,4.30769231 C4.42616667,4.30769231 4.72466667,4.03215385 4.72466667,3.69230769 C4.72466667,3.35246154 4.42616667,3.07692308 4.058,3.07692308 L2.66666667,3.07692308 C2.2985,3.07692308 2,3.40815385 2,3.748 L2,15.3846154 C2,15.7244615 2.2985,16 2.66666667,16 L15.3333333,16 C15.7015,16 16,15.7244615 16,15.3846154 L16,3.748 C16,3.40815385 15.7015,3.07692308 15.3333333,3.07692308 M6.03983333,8.15384615 L11.96,8.15384615 C12.3281667,8.15384615 12.6266667,7.87830769 12.6266667,7.53846154 C12.6266667,7.19861538 12.3281667,6.92307692 11.96,6.92307692 L6.03983333,6.92307692 C5.67166667,6.92307692 5.37316667,7.19861538 5.37316667,7.53846154 C5.37316667,7.87830769 5.67166667,8.15384615 6.03983333,8.15384615 M11.6666667,5.50615385 C12.1268333,5.50615385 12.5,5.16169231 12.5,4.73692308 L12.5,2.76923077 C12.5,2.34446154 12.1268333,2 11.6666667,2 C11.2065,2 10.8333333,2.34446154 10.8333333,2.76923077 L10.8333333,4.73692308 C10.8333333,5.16169231 11.2065,5.50615385 11.6666667,5.50615385 M5.5,4.73692308 L5.5,2.76923077 C5.5,2.34446154 5.87316667,2 6.33333333,2 C6.7935,2 7.16666667,2.34446154 7.16666667,2.76923077 L7.16666667,4.73692308 C7.16666667,5.16169231 6.7935,5.50615385 6.33333333,5.50615385 C5.87316667,5.50615385 5.5,5.16169231 5.5,4.73692308" id="to-do" fill="#4A4A4A"></path>
    </g>
</svg>