<?xml version="1.0" encoding="UTF-8"?>
<svg width="20px" height="21px" viewBox="0 0 20 21" version="1.1" xmlns="http://www.w3.org/2000/svg" xmlns:xlink="http://www.w3.org/1999/xlink">
    <!-- Generator: sketchtool 58 (101010) - https://sketch.com -->
    <title>54AD356D-A454-43C5-BC88-53B14DCBAC53</title>
    <desc>Created with sketchtool.</desc>
    <defs>
        <linearGradient x1="0%" y1="53.125%" x2="100%" y2="46.875%" id="linearGradient-1">
            <stop stop-color="#FFD51D" offset="0%"></stop>
            <stop stop-color="#F7981F" offset="100%"></stop>
        </linearGradient>
        <linearGradient x1="100%" y1="37.5%" x2="0%" y2="62.5%" id="linearGradient-2">
            <stop stop-color="#FFD521" offset="0%"></stop>
            <stop stop-color="#FFEC42" offset="100%"></stop>
        </linearGradient>
        <linearGradient x1="0%" y1="100%" x2="100%" y2="0%" id="linearGradient-3">
            <stop stop-color="#FFD51D" offset="0%"></stop>
            <stop stop-color="#FFD51D" offset="0%"></stop>
            <stop stop-color="#F7981F" offset="100%"></stop>
        </linearGradient>
        <linearGradient x1="0%" y1="81.4941406%" x2="100%" y2="0%" id="linearGradient-4">
            <stop stop-color="#FFD51D" offset="0%"></stop>
            <stop stop-color="#F7981F" offset="100%"></stop>
        </linearGradient>
    </defs>
    <g id="Concepts" stroke="none" stroke-width="1" fill="none" fill-rule="evenodd">
        <g id="Registration/Profile-Participation" transform="translate(-360.000000, -532.000000)">
            <g id="bar/line_item" transform="translate(344.000000, 524.000000)">
                <g id="Group" transform="translate(16.000000, 0.500000)">
                    <g id="icon/division" transform="translate(0.000000, 8.000000)">
                        <rect id="Rectangle" fill="url(#linearGradient-1)" x="2.5" y="8.125" width="15" height="3.75" rx="1.875"></rect>
                        <path d="M10,8.125 L15.625,8.125 C16.6605339,8.125 17.5,8.96446609 17.5,10 C17.5,11.0355339 16.6605339,11.875 15.625,11.875 L10,11.875 L10,11.875 L10,8.125 Z" id="Rectangle" fill="url(#linearGradient-2)"></path>
                        <rect id="Rectangle" fill="url(#linearGradient-3)" x="8.125" y="2.5" width="3.75" height="3.75" rx="1.875"></rect>
                        <rect id="Rectangle" fill="url(#linearGradient-4)" x="8.125" y="13.75" width="3.75" height="3.75" rx="1.875"></rect>
                        <polygon id="Rectangle" fill="#FFFFFF" transform="translate(4.062500, 9.062500) rotate(-270.000000) translate(-4.062500, -9.062500) " points="3.75 8.75 4.375 8.75 4.375 9.375 3.75 9.375"></polygon>
                        <polygon id="Rectangle" fill="#D8D8D8" transform="translate(15.937500, 10.937500) rotate(-270.000000) translate(-15.937500, -10.937500) " points="15.625 10.625 16.25 10.625 16.25 11.25 15.625 11.25"></polygon>
                    </g>
                </g>
            </g>
        </g>
    </g>
</svg>