<?xml version="1.0" encoding="UTF-8"?>
<svg width="18px" height="18px" viewBox="0 0 18 18" version="1.1" xmlns="http://www.w3.org/2000/svg" xmlns:xlink="http://www.w3.org/1999/xlink">
    <!-- Generator: sketchtool 57.1 (101010) - https://sketch.com -->
    <title>79ECD9DF-AD1F-47BC-B525-88F64525A1F3</title>
    <desc>Created with sketchtool.</desc>
    <g id="Symbols" stroke="none" stroke-width="1" fill="none" fill-rule="evenodd">
        <g id="icon/document" fill="#4A4A4A">
            <path d="M13.2346026,9.16846154 L13.2346026,15.3846154 C13.2346026,15.7244615 12.8960089,16 12.5142053,16 L2.69136016,16 C2.30955651,16 2,15.7244615 2,15.3846154 L2,3.66492308 C2,3.32507692 2.30955651,3.07692308 2.69136016,3.07692308 L9.87701197,3.07692308 C10.2588156,3.07692308 10.5683721,3.35246154 10.5683721,3.69230769 C10.5683721,4.03215385 10.2588156,4.30769231 9.87701197,4.30769231 L3.38272032,4.30769231 L3.38272032,14.7692308 L11.8518823,14.7692308 L11.8518823,9.16846154 C11.8518823,8.82861538 12.1614388,8.55307692 12.5432424,8.55307692 C12.9250461,8.55307692 13.2346026,8.82861538 13.2346026,9.16846154 L13.2346026,9.16846154 Z M7.94569736,9.72030769 L7.11537381,10.0135385 L7.44791805,9.25646154 L14.2405316,3.11892308 L14.7530023,3.58123077 L7.94569736,9.72030769 Z M15.8505366,3.25707692 L14.6093723,2.13738462 C14.5118905,2.04953846 14.3789765,2 14.2401859,2 L14.2400131,2 C14.1012225,2 13.9683085,2.04969231 13.8708268,2.13753846 L6.63435998,8.67615385 C6.58510057,8.72076923 6.5463844,8.77369231 6.52080408,8.832 L5.71554233,10.6658462 C5.64035691,10.8369231 5.68633237,11.0313846 5.83255504,11.1610769 C5.93176522,11.2487692 6.06381501,11.2953846 6.1984574,11.2953846 C6.2627539,11.2953846 6.32756891,11.2847692 6.38961849,11.2629231 L8.42947663,10.5426154 C8.49619289,10.5189231 8.55685974,10.4832308 8.60732903,10.4376923 L15.8505366,3.90553846 C16.0498211,3.72569231 16.0498211,3.43676923 15.8505366,3.25707692 L15.8505366,3.25707692 Z" id="document-edit"></path>
        </g>
    </g>
</svg>