<?xml version="1.0" encoding="UTF-8"?>
<svg width="32px" height="32px" viewBox="0 0 32 32" version="1.1" xmlns="http://www.w3.org/2000/svg" xmlns:xlink="http://www.w3.org/1999/xlink">
    <!-- Generator: Sketch 52.5 (67469) - http://www.bohemiancoding.com/sketch -->
    <title>icon/education</title>
    <desc>Created with Sketch.</desc>
    <defs>
        <linearGradient x1="0%" y1="0%" x2="100%" y2="100%" id="linearGradient-1">
            <stop stop-color="#FFD51D" offset="0%"></stop>
            <stop stop-color="#F7981F" offset="100%"></stop>
        </linearGradient>
        <linearGradient x1="100%" y1="50%" x2="0%" y2="50%" id="linearGradient-2">
            <stop stop-color="#FFD521" offset="0%"></stop>
            <stop stop-color="#FFEC42" offset="100%"></stop>
        </linearGradient>
    </defs>
    <g id="icon/education" stroke="none" stroke-width="1" fill="none" fill-rule="evenodd">
        <g id="Group" transform="translate(2.000000, 7.000000)">
            <polygon id="Rectangle" fill="url(#linearGradient-1)" points="14 0 28 4.92877916 13.9546038 11.5714286 0 4.92877916"></polygon>
            <polygon id="Rectangle" fill="url(#linearGradient-1)" points="14 12.8571429 24.3478261 7.71428571 24.3478261 12.8571429 14 18 3.65217391 12.9653445 3.65217391 7.71428571"></polygon>
            <polygon id="Rectangle" fill="url(#linearGradient-2)" points="13.9778575 12.8555734 24.3478261 7.71428571 24.3478261 12.8555734 13.9778575 18"></polygon>
            <rect id="Rectangle" fill="#FFFFFF" x="13" y="5" width="1" height="1"></rect>
            <path d="M1.5,5 L13,5 L13,6 L1.5,6 C1.22385763,6 1,5.77614237 1,5.5 L1,5.5 C1,5.22385763 1.22385763,5 1.5,5 Z" id="Rectangle" fill="#4A4A4A"></path>
            <path d="M1,7 L1,7 C1.55228475,7 2,7.44771525 2,8 L2,14.7142857 L0,14.7142857 L0,8 C-6.76353751e-17,7.44771525 0.44771525,7 1,7 Z" id="Rectangle" fill="#D8D8D8"></path>
            <rect id="Rectangle" fill="#4A4A4A" x="4.4408921e-14" y="7" width="2" height="1"></rect>
        </g>
    </g>
</svg>