<?xml version="1.0" encoding="UTF-8"?>
<svg width="32px" height="32px" viewBox="0 0 32 32" version="1.1" xmlns="http://www.w3.org/2000/svg" xmlns:xlink="http://www.w3.org/1999/xlink">
    <!-- Generator: sketchtool 57.1 (101010) - https://sketch.com -->
    <title>68B37E73-FB96-4FD1-9F88-6D7F17A4DADD</title>
    <desc>Created with sketchtool.</desc>
    <defs>
        <linearGradient x1="50%" y1="2.13601879%" x2="50%" y2="100%" id="linearGradient-1">
            <stop stop-color="#FFD521" offset="0%"></stop>
            <stop stop-color="#FFEC42" offset="100%"></stop>
        </linearGradient>
        <linearGradient x1="90.2163508%" y1="83.9699533%" x2="19.7530864%" y2="33.5472466%" id="linearGradient-2">
            <stop stop-color="#FFD521" offset="0%"></stop>
            <stop stop-color="#FFEC42" offset="100%"></stop>
        </linearGradient>
        <linearGradient x1="0%" y1="29.0657439%" x2="100%" y2="70.9342561%" id="linearGradient-3">
            <stop stop-color="#FFD51D" offset="0%"></stop>
            <stop stop-color="#F7981F" offset="100%"></stop>
        </linearGradient>
    </defs>
    <g id="Symbols" stroke="none" stroke-width="1" fill="none" fill-rule="evenodd">
        <g id="icon/enviroment">
            <path d="M5.96926146,6.93665288 C7.25180071,8.70608214 8.04471591,10.0695187 8.34800705,11.0269626 C8.80294377,12.4631284 9.46421513,13.6541935 8.34800705,14.44599 C7.92739879,14.7443538 7.24677203,14.8943628 6.52134741,14.9366529 C6.33137103,14.9476984 6.1303339,11.0299428 5.9380783,11.0269626 C5.75474754,11.0241208 5.58012638,14.9366529 5.40158982,14.9223372 C4.58500688,14.856836 3.8536279,14.6778816 3.52814955,14.44599 C2.77192174,13.9072047 2.77287021,13.3354007 3.52814955,11.0120139 C4.0316691,9.46308938 4.84537307,8.10463571 5.96926146,6.93665288 Z" id="Rectangle" fill="url(#linearGradient-1)" transform="translate(5.961334, 10.936653) rotate(-46.000000) translate(-5.961334, -10.936653) "></path>
            <path d="M16.0079271,2 C17.2904664,3.76942926 18.0833816,5.13286584 18.3866727,6.09030973 C18.8416095,7.52647557 19.5028808,8.71754065 18.3866727,9.50933707 C17.9660645,9.8077009 17.2854377,9.95770993 16.5600131,10 C16.3700367,10.0110455 16.1689996,6.09328991 15.976744,6.09030973 C15.7934132,6.08746789 15.6187921,10 15.4402555,9.98568434 C14.6236726,9.92018314 13.8922936,9.74122875 13.5668152,9.50933707 C12.8105874,8.97055181 12.8115359,8.39874777 13.5668152,6.075361 C14.0703348,4.52643649 14.8840388,3.16798283 16.0079271,2 Z" id="Rectangle" fill="url(#linearGradient-1)" transform="translate(16.000000, 6.000000) rotate(-360.000000) translate(-16.000000, -6.000000) "></path>
            <path d="M26.4573745,5.19370173 C27.9536702,7.18430964 28.878738,8.71817579 29.2325776,9.79530017 C29.7633372,11.4109867 30.5348204,12.750935 29.2325776,13.6417059 C28.741868,13.9773652 27.9478035,14.1461254 27.1014747,14.1937017 C26.8798356,14.2061279 26.6452923,9.79865288 26.4209941,9.79530017 C26.2071082,9.7921031 26.0033835,14.1937017 25.7950909,14.1775966 C24.8424108,14.1039078 23.9891353,13.9025841 23.6094106,13.6417059 C22.7271448,13.0355725 22.7282513,12.392293 23.6094106,9.77848286 C24.19685,8.03594278 25.1461713,6.50768241 26.4573745,5.19370173 Z" id="Rectangle" fill="url(#linearGradient-2)" transform="translate(26.448126, 9.693702) rotate(-325.000000) translate(-26.448126, -9.693702) "></path>
            <polygon id="Rectangle" fill="#D8D8D8" transform="translate(10.100997, 15.030652) rotate(51.000000) translate(-10.100997, -15.030652) " points="11.3458591 14.0410978 15.0362803 15.2434405 14.4072672 16.020207 11.4200824 14.9420258 5.16571311 15.5639288"></polygon>
            <polygon id="Rectangle" fill="#D8D8D8" transform="translate(22.314176, 15.259679) scale(-1, 1) rotate(51.000000) translate(-22.314176, -15.259679) " points="24.3458718 13.9271255 26.6773097 15.8150867 26.0479893 16.5922326 23.7165514 14.7042714 17.9510426 15.1824927"></polygon>
            <polygon id="Rectangle" fill="#D8D8D8" transform="translate(15.801978, 12.907867) scale(-1, 1) rotate(51.000000) translate(-15.801978, -12.907867) " points="17.9325717 13.601235 20.2640096 15.4891962 19.6346892 16.2663422 17.3032513 14.378381 11.3399462 9.54939178"></polygon>
            <polygon id="Rectangle-2" fill="url(#linearGradient-3)" points="8 18 25 18 22.1666667 29 10.8606567 29"></polygon>
            <rect id="Rectangle" fill="#4A4A4A" x="11" y="28" width="11" height="1"></rect>
        </g>
    </g>
</svg>