<?xml version="1.0" encoding="UTF-8"?>
<svg width="18px" height="18px" viewBox="0 0 18 18" version="1.1" xmlns="http://www.w3.org/2000/svg" xmlns:xlink="http://www.w3.org/1999/xlink">
    <!-- Generator: Sketch 52.5 (67469) - http://www.bohemiancoding.com/sketch -->
    <title>icon/exit</title>
    <desc>Created with Sketch.</desc>
    <g id="icon/exit" stroke="none" stroke-width="1" fill="none" fill-rule="evenodd">
        <path d="M11.8818719,8.56547362 L9.49685012,5.99893308 C9.26021968,5.74433848 8.87491534,5.74239253 8.63600229,5.9945547 C8.39724142,6.2465547 8.39526316,6.65731145 8.6318936,6.91174389 L9.99308925,8.3765547 L2.60717621,8.39520335 C2.27102403,8.39617632 1.99908925,8.68709524 2.00000229,9.04531145 C2.00076316,9.40320335 2.27300229,9.69250064 2.60869794,9.69250064 L2.61006751,9.69250064 L9.98685012,9.67401416 L8.6318936,11.1321763 C8.39526316,11.3866088 8.39724142,11.7973655 8.63600229,12.0493655 C8.75469794,12.1747169 8.90961099,12.2371493 9.06437186,12.2371493 C9.22111099,12.2371493 9.37785012,12.1730952 9.49685012,12.0449871 L11.8818719,9.47828443 C12.1168284,9.22547362 12.1168284,8.81828443 11.8818719,8.56547362" id="exit" fill="#4A4A4A" transform="translate(7.029045, 9.021926) rotate(-180.000000) translate(-7.029045, -9.021926) "></path>
        <path d="M12.2986089,13.7181792 C13.9652294,12.9221608 15.116734,11.2203599 15.116734,9.24947843 C15.116734,6.51622101 12.902081,4.30047808 10.170168,4.30047808 C8.21802681,4.30047808 6.53000333,5.43185714 5.72541826,7.07498979" id="Oval" stroke="#4A4A4A" stroke-linecap="round" transform="translate(10.421076, 9.009329) rotate(-315.000000) translate(-10.421076, -9.009329) "></path>
    </g>
</svg>