<?xml version="1.0" encoding="UTF-8"?>
<svg width="18px" height="18px" viewBox="0 0 18 18" version="1.1" xmlns="http://www.w3.org/2000/svg" xmlns:xlink="http://www.w3.org/1999/xlink">
    <!-- Generator: Sketch 52.5 (67469) - http://www.bohemiancoding.com/sketch -->
    <title>find</title>
    <desc>Created with Sketch.</desc>
    <g id="Symbols" stroke="none" stroke-width="1" fill="none" fill-rule="evenodd">
        <g id="bar/header" transform="translate(0.000000, -15.000000)" fill="#9B9B9B">
            <g id="header-assets">
                <path d="M1.55679456,21.0573532 C1.55679456,18.5757167 3.60389039,16.5567946 6.12015719,16.5567946 C8.63622833,16.5567946 10.6833242,18.5757167 10.6833242,21.0573532 C10.6833242,23.5389898 8.63622833,25.5579119 6.12015719,25.5579119 C3.60389039,25.5579119 1.55679456,23.5389898 1.55679456,21.0573532 M17.7398668,31.5013963 L10.9409965,24.7819603 C11.7537305,23.7536189 12.2401187,22.4609531 12.2401187,21.0573532 C12.2401187,17.7172003 9.49474468,15 6.12015719,15 C2.7455697,15 0,17.7172003 0,21.0573532 C0,24.3973105 2.7455697,27.1147065 6.12015719,27.1147065 C7.44256192,27.1147065 8.66733683,26.6960135 9.66926532,25.9873657 L16.508831,32.7471059 C16.6794387,32.915757 16.9018938,32.9998869 17.1243489,32.9998869 C17.3501301,32.9998869 17.5759113,32.9130179 17.7471059,32.7396711 C18.0871472,32.3957168 18.0838211,31.8414376 17.7398668,31.5013963" id="find"></path>
            </g>
        </g>
    </g>
</svg>