<?xml version="1.0" encoding="UTF-8"?>
<svg width="18px" height="18px" viewBox="0 0 18 18" version="1.1" xmlns="http://www.w3.org/2000/svg" xmlns:xlink="http://www.w3.org/1999/xlink">
    <!-- Generator: Sketch 52.5 (67469) - http://www.bohemiancoding.com/sketch -->
    <title>icon/gear</title>
    <desc>Created with Sketch.</desc>
    <g id="icon/gear" stroke="none" stroke-width="1" fill="none" fill-rule="evenodd">
        <path d="M8.43706274,15.0182039 C8.57814589,15.0273511 8.74387983,15.0344828 8.91535011,15.0344828 L8.99984496,15.0344828 C9.17271058,15.0344828 9.33875459,15.0273511 9.4796827,15.0182039 L9.62464176,13.9958937 C9.65657926,13.7710909 9.82386356,13.5890782 10.0452556,13.5382262 C10.5263336,13.4279953 10.9849313,13.2422617 11.4081808,12.9866066 C11.5329851,12.9112589 11.6825953,12.8889337 11.8239885,12.9238169 C11.9050725,12.9439716 11.979335,12.9819555 12.0424348,13.0343578 L12.8577714,13.6532633 C12.9638163,13.5600864 13.085985,13.447995 13.2072235,13.3267565 L13.2669125,13.2670675 C13.3887711,13.1452089 13.5013276,13.0225751 13.5948145,12.9160651 L12.9768393,12.0928216 C12.8405623,11.9111189 12.8301749,11.6641459 12.9509482,11.4717457 C13.2076886,11.0629147 13.3977632,10.6199756 13.5162111,10.1545563 C13.5563655,9.92184658 13.741789,9.7371982 13.9811653,9.70448551 L15.0182039,9.56247215 C15.027196,9.42154404 15.0344828,9.25596514 15.0344828,9.08464989 L15.0344828,9.00015504 C15.0344828,8.82775453 15.027196,8.66140045 15.0180489,8.51985219 L13.9991495,8.3747381 C13.7743467,8.3428006 13.592644,8.17567133 13.5417921,7.95458939 C13.4324914,7.47893764 13.2493934,7.0254561 12.9976142,6.60654768 C12.9742037,6.57042419 12.9548242,6.53135501 12.9402507,6.48980525 C12.8790113,6.31585438 12.9087783,6.12283403 13.0204046,5.97601454 L13.6532633,5.14222864 C13.5599313,5.03602869 13.447995,4.91401503 13.3267565,4.79277654 L13.2670675,4.73308752 C13.1448988,4.61076378 13.022265,4.49851741 12.9162201,4.40518548 L12.0908062,5.02548622 C11.8957703,5.17215067 11.6300379,5.17122046 11.4373276,5.02982724 C11.0271013,4.77773801 10.5830769,4.5916943 10.1168824,4.47727742 C9.89843608,4.42347978 9.73487265,4.24177709 9.70433048,4.01883471 L9.56247215,2.98179607 C9.421389,2.97264892 9.25596514,2.96551724 9.08449485,2.96551724 L9.00015504,2.96551724 C8.82790957,2.96551724 8.66155548,2.97280395 8.52016227,2.9819511 L8.37520321,4.00410625 C8.34094016,4.24596307 8.15195076,4.432937 7.91567525,4.46937056 C7.44886057,4.58053168 7.00344092,4.76300955 6.59150914,5.01230812 C6.46453431,5.08920619 6.31197847,5.11122136 6.16856978,5.07354751 C6.08826091,5.05261759 6.01492868,5.01401352 5.95291411,4.96145617 L5.14222864,4.34658171 C5.03618373,4.43991364 4.91401503,4.55184994 4.79277654,4.67324346 L4.73308752,4.73293248 C4.61076378,4.85510119 4.49836237,4.97757996 4.40518548,5.08377991 L5.02548622,5.90919384 C5.16005783,6.08810587 5.17230571,6.33073788 5.05664854,6.52220786 C5.04688124,6.53848669 5.03633877,6.55399033 5.02517614,6.56887382 C4.77463728,6.97692969 4.58967883,7.4187835 4.47526195,7.88296256 C4.42146431,8.10125385 4.23991665,8.26466224 4.01712931,8.29520441 L2.98179607,8.43737281 C2.97264892,8.57845596 2.96551724,8.74403486 2.96551724,8.91550515 L2.96551724,8.99984496 C2.96551724,9.17209043 2.97280395,9.33828948 2.98179607,9.47983773 L4.00395121,9.62479679 C4.24611811,9.65905984 4.4363478,9.84944457 4.47030078,10.0916115 C4.471231,10.0984331 4.47216122,10.1050996 4.47278136,10.1119212 C4.58440759,10.5695888 4.76486999,11.0061713 5.00951746,11.4105063 C5.09292706,11.5484887 5.11153143,11.7159281 5.06036941,11.868639 C5.03788913,11.9357697 5.00300593,11.9968541 4.95835544,12.0495665 L4.34642668,12.8574613 C4.4397586,12.9636612 4.55184994,13.0858299 4.67308842,13.2072235 L4.73277745,13.2669125 C4.85510119,13.3892362 4.97757996,13.5014826 5.08362488,13.5948145 L5.9090388,12.9745138 C6.11725272,12.817927 6.40050427,12.8318803 6.59166418,12.9928081 C6.99336356,13.2359052 7.42715547,13.4157474 7.88218738,13.5276837 C8.10032363,13.5813263 8.26373202,13.762719 8.29442923,13.9853513 L8.43706274,15.0182039 Z M8.99984783,16 L8.91691304,16 C8.38826087,16 7.92367391,15.9412609 7.90419565,15.9388261 C7.663,15.9079348 7.47232609,15.7192391 7.43915217,15.4783478 L7.28895652,14.3895435 C6.95478261,14.2836304 6.63186957,14.1466739 6.32295652,13.9801957 L5.46226087,14.6269348 C5.2683913,14.7725652 5.00117391,14.7707391 4.80943478,14.6225217 C4.79391304,14.6105 4.42397826,14.3235 4.05008696,13.9496087 L3.9915,13.8910217 C3.6176087,13.5172826 3.33076087,13.1473478 3.31858696,13.1316739 C3.16991304,12.9393261 3.16854348,12.6711957 3.3153913,12.4771739 L3.98008696,11.5997391 C3.81878261,11.2886957 3.68730435,10.9638043 3.58671739,10.6287174 L2.51967391,10.4774565 C2.27969565,10.4433696 2.09206522,10.2531522 2.06117391,10.0127174 C2.05873913,9.99323913 2,9.5285 2,8.99984783 L2,8.91706522 C2,8.38826087 2.05873913,7.92367391 2.06117391,7.90419565 C2.09221739,7.66284783 2.28106522,7.47217391 2.5221087,7.43915217 L3.61365217,7.28926087 C3.71941304,6.956 3.85606522,6.634 4.02208696,6.32584783 L3.37306522,5.46241304 C3.22728261,5.26854348 3.2291087,5.00132609 3.37747826,4.80943478 C3.3895,4.79391304 3.6765,4.42397826 4.05023913,4.05008696 L4.10882609,3.9915 C4.48271739,3.61776087 4.85265217,3.33076087 4.86832609,3.31873913 C5.06067391,3.16991304 5.3291087,3.16854348 5.52297826,3.31569565 L6.40254348,3.98267391 C6.71267391,3.82182609 7.0365,3.69065217 7.37082609,3.59021739 L7.52254348,2.51982609 C7.55663043,2.27969565 7.74684783,2.09206522 7.98728261,2.06117391 C8.00676087,2.05873913 8.47134783,2 9.00015217,2 L9.08293478,2 C9.61173913,2 10.0763261,2.05873913 10.0958043,2.06117391 C10.3371522,2.09221739 10.5278261,2.28121739 10.5608478,2.52226087 L10.710587,3.61532609 C11.0432391,3.72093478 11.3652391,3.85713043 11.6732391,4.02284783 L12.537587,3.37306522 C12.7314565,3.22728261 12.9985217,3.2291087 13.190413,3.37747826 C13.206087,3.3895 13.5760217,3.6765 13.949913,4.0503913 L14.0085,4.10897826 C14.3823913,4.48286957 14.6692391,4.85295652 14.6812609,4.86847826 C14.830087,5.06097826 14.8313043,5.32941304 14.6841522,5.52328261 L14.0176304,6.40117391 C14.179087,6.7116087 14.3107174,7.03573913 14.4114565,7.37036957 L15.4804783,7.52269565 C15.7204565,7.55678261 15.9079348,7.747 15.9386739,7.98728261 C15.9412609,8.00691304 16,8.4715 16,9.00015217 L16,9.08308696 C16,9.61173913 15.9412609,10.0763261 15.9386739,10.0958043 C15.9077826,10.3371522 15.7187826,10.5278261 15.477587,10.561 L14.3877174,10.7101304 C14.2819565,11.0435435 14.1453043,11.3661522 13.9789783,11.6746087 L14.6269348,12.5378913 C14.7725652,12.7316087 14.770587,12.9988261 14.6223696,13.1905652 C14.6103478,13.206087 14.3235,13.5760217 13.9496087,13.949913 L13.8910217,14.0085 C13.5171304,14.3822391 13.1471957,14.6693913 13.1315217,14.681413 C12.9391739,14.8302391 12.670587,14.8314565 12.4767174,14.6841522 L11.5966957,14.0162609 C11.2867174,14.1768043 10.9633478,14.3078261 10.6293261,14.4081087 L10.4773043,15.4803261 C10.4432174,15.7203043 10.253,15.9079348 10.0125652,15.9388261 C9.99308696,15.9412609 9.5285,16 8.99984783,16 L8.99984783,16 Z M8.98838513,7.44444444 C8.13702261,7.44444444 7.44444444,8.13699423 7.44444444,8.98832186 C7.44444444,9.83952299 8.13702261,10.5319463 8.98838513,10.5319463 C9.83949461,10.5319463 10.5319463,9.83952299 10.5319463,8.98832186 C10.5319463,8.13699423 9.83949461,7.44444444 8.98838513,7.44444444 L8.98838513,7.44444444 Z M9.00018155,11.3333333 C7.71348047,11.3333333 6.66666667,10.2866677 6.66666667,9.00012103 C6.66666667,7.71345333 7.71348047,6.66666667 9.00018155,6.66666667 C10.2866406,6.66666667 11.3333333,7.71345333 11.3333333,9.00012103 C11.3333333,10.2866677 10.2866406,11.3333333 9.00018155,11.3333333 L9.00018155,11.3333333 Z" id="gear" fill="#4A4A4A"></path>
    </g>
</svg>