<?xml version="1.0" encoding="UTF-8"?>
<svg width="32px" height="32px" viewBox="0 0 32 32" version="1.1" xmlns="http://www.w3.org/2000/svg" xmlns:xlink="http://www.w3.org/1999/xlink">
    <!-- Generator: Sketch 52.5 (67469) - http://www.bohemiancoding.com/sketch -->
    <title>icon/hands</title>
    <desc>Created with Sketch.</desc>
    <defs>
        <linearGradient x1="100%" y1="100%" x2="0%" y2="0%" id="linearGradient-1">
            <stop stop-color="#FFD521" offset="0%"></stop>
            <stop stop-color="#FFEC42" offset="100%"></stop>
        </linearGradient>
        <linearGradient x1="100%" y1="0%" x2="0%" y2="100%" id="linearGradient-2">
            <stop stop-color="#FFD51D" offset="0%"></stop>
            <stop stop-color="#F7981F" offset="100%"></stop>
        </linearGradient>
    </defs>
    <g id="icon/hands" stroke="none" stroke-width="1" fill="none" fill-rule="evenodd">
        <path d="M26.5261705,6.67677577 L26.5261705,9.92465519 C26.5261705,10.0590958 26.4130225,10.1681335 26.273514,10.1681335 L26.1892952,10.1681335 C26.0497446,10.1681335 25.9366387,10.0590958 25.9366387,9.92465519 L25.9366387,5.35943617 C25.9366387,4.97185922 25.6127752,4.65582432 25.2121883,4.64937214 C24.8000634,4.64271707 24.4628091,4.98103023 24.4628091,5.37822458 L24.4628091,9.60001739 C24.4628091,9.73445802 24.3496611,9.84349574 24.2101526,9.84349574 C24.070602,9.84349574 23.9574962,9.73445802 23.9574962,9.60001739 L23.9574962,4.71016057 C23.9574962,4.32258362 23.6336326,4.00654873 23.2330458,4.00009655 C22.8209209,3.99344147 22.4836666,4.33175464 22.4836666,4.72894898 L22.4836666,9.92465519 C22.4836666,10.0590958 22.3705186,10.1681335 22.2310101,10.1681335 C22.0914595,10.1681335 21.9783536,10.0590958 21.9783536,9.92465519 L21.9783536,5.80581314 C21.9783536,5.41823619 21.6544901,5.10220129 21.2539033,5.09574912 C20.8417784,5.08909404 20.5045241,5.4274072 20.5045241,5.82460155 L20.5045241,10.7768294 L20.5045241,11.7570732 L20.5045241,11.8319022 C20.5045241,12.0595951 20.2166221,12.1712299 20.0529428,12.0069632 L19.9992111,11.9529921 L19.4731382,11.4250499 C19.2635597,11.2146846 18.9913223,11.0940411 18.7261593,11.0940411 C18.5686701,11.0940411 18.4225504,11.1378672 18.3035071,11.2208122 C17.9299124,11.4810094 17.8966038,12.0535487 18.2292261,12.4971257 L19.8217621,14.9013932 L20.8031641,16.2100893 C20.8083857,16.217069 20.8139441,16.2236024 20.819292,16.2304198 C21.0362818,16.5815561 21.3131933,16.8943852 21.6364252,17.1557186 C22.2968272,17.6896261 23.3607215,18.008745 24.2902026,17.9998175 C26.352806,17.9800146 28,16.3313821 28,14.3436249 L28,12.6840765 L28,10.7768294 L28,6.65798736 C28,6.2704104 27.6761365,5.95437551 27.2755496,5.94792333 C26.8634248,5.94126826 26.5261705,6.27958142 26.5261705,6.67677577 Z" id="Fill-1" fill="url(#linearGradient-1)"></path>
        <path d="M16.9857695,9.78274762 C16.4087947,9.77324037 15.9366387,10.2565449 15.9366387,10.8239654 L15.9366387,15.4637931 C15.9366387,15.6558512 15.7782315,15.8116193 15.5829196,15.8116193 L15.4650132,15.8116193 C15.2696424,15.8116193 15.1112941,15.6558512 15.1112941,15.4637931 L15.1112941,8.94205167 C15.1112941,8.38837031 14.6578852,7.93689189 14.0970636,7.92767449 C13.5200888,7.91816724 13.0479328,8.40147176 13.0479328,8.96889226 L13.0479328,15.0000248 C13.0479328,15.1920829 12.8895256,15.3478511 12.6942137,15.3478511 C12.4988429,15.3478511 12.3404946,15.1920829 12.3404946,15.0000248 L12.3404946,8.0145151 C12.3404946,7.46083375 11.8870857,7.00935532 11.3262641,7.00013793 C10.7492893,6.99063068 10.2771333,7.4739352 10.2771333,8.04135569 L10.2771333,15.4637931 C10.2771333,15.6558512 10.1187261,15.8116193 9.9234142,15.8116193 C9.72804335,15.8116193 9.56969511,15.6558512 9.56969511,15.4637931 L9.56969511,9.57973305 C9.56969511,9.0260517 9.11628619,8.57457327 8.55546458,8.56535588 C7.9784898,8.55584863 7.50633377,9.03915315 7.50633377,9.60657364 L7.50633377,16.6811849 L7.50633377,18.0815332 L7.50633377,18.1884318 C7.50633377,18.5137073 7.10327087,18.6731856 6.87411986,18.4385188 L6.7988956,18.3614174 L6.06239351,17.6072142 C5.76898353,17.3066923 5.38785121,17.1343444 5.01662303,17.1343444 L5.01650512,17.1342285 L5.01650512,17.1343444 C4.79613813,17.1343444 4.5915706,17.1969532 4.42490995,17.315446 C3.90187733,17.6871562 3.85524536,18.5050696 4.32091654,19.138751 L6.5504669,22.5734189 L7.92442973,24.4429847 C7.93173993,24.4529558 7.93952175,24.4622891 7.9470088,24.4720282 C8.25079454,24.9736516 8.63847066,25.4205503 9.09099528,25.7938838 C10.015558,26.5566087 11.5050101,27.0124929 12.8062837,26.9997393 C15.6939284,26.9714494 18,24.6162602 18,21.776607 L18,19.4058235 L18,16.6811849 L18,10.7971248 C18,10.2434434 17.5465911,9.79196501 16.9857695,9.78274762" id="Fill-1" fill="url(#linearGradient-2)" transform="translate(11.000000, 17.000000) scale(-1, 1) translate(-11.000000, -17.000000) "></path>
        <path d="M6,25 L13,25 C13.5522847,25 14,25.4477153 14,26 L14,28 L5,28 L5,26 C5,25.4477153 5.44771525,25 6,25 Z" id="Rectangle" fill="#D8D8D8"></path>
        <path d="M22,17 L26,17 C26.5522847,17 27,17.4477153 27,18 L27,19 L21,19 L21,18 C21,17.4477153 21.4477153,17 22,17 Z" id="Rectangle" fill="#4A4A4A"></path>
        <rect id="Rectangle" fill="#FFFFFF" x="6" y="26" width="1" height="1"></rect>
    </g>
</svg>