<svg xmlns="http://www.w3.org/2000/svg" width="40" height="40" viewBox="0 0 40 40">
    <defs>
        <linearGradient id="a" x1="0%" x2="86.279%" y1="84.267%" y2="0%">
            <stop offset="0%" stop-color="#FFD51D"/>
            <stop offset="100%" stop-color="#F7981F"/>
        </linearGradient>
        <linearGradient id="b" x1="100%" x2="0%" y1="7.23%" y2="94.706%">
            <stop offset="0%" stop-color="#FFD51D"/>
            <stop offset="100%" stop-color="#F7981F"/>
        </linearGradient>
        <linearGradient id="c" x1="100%" x2="0%" y1="0%" y2="100%">
            <stop offset="0%" stop-color="#FFD51D"/>
            <stop offset="100%" stop-color="#F7981F"/>
        </linearGradient>
    </defs>
    <g fill="none" fill-rule="evenodd" transform="translate(0 1)">
        <path fill="#F7991F" d="M20 19.5a2.503 2.503 0 0 0-2.5 2.5c0 1.379 1.121 2.5 2.5 2.5 1.378 0 2.5-1.121 2.5-2.5s-1.122-2.5-2.5-2.5"/>
        <path fill="url(#a)" d="M16.408 22.06c0-1.999 1.608-3.619 3.593-3.619 1.984 0 3.592 1.62 3.592 3.62 0 1.998-1.608 3.618-3.592 3.618-1.985 0-3.593-1.62-3.593-3.619zm9.41 2.812A8.933 8.933 0 0 1 38 23.572l-5.255-17.95a.955.955 0 0 0-.207-.38.872.872 0 0 1-.231-.593c0-2.288-2.07-4.149-4.615-4.149-2.545 0-4.615 1.861-4.615 4.15 0 .082.176.947-.053 1.255a.864.864 0 0 1-1.214.176c-.612-.461-.941-.605-1.81-.605-.859 0-1.185.14-1.79.591a.863.863 0 0 1-1.214-.183c-.218-.298-.073-1.148-.073-1.235 0-2.288-2.07-4.149-4.615-4.149-2.544 0-4.614 1.861-4.614 4.15a.872.872 0 0 1-.231.591.953.953 0 0 0-.207.38L2 23.575a8.931 8.931 0 0 1 12.158 1.276.42.42 0 0 1 .086.1c.38.451.717.939 1.005 1.459A6.401 6.401 0 0 0 20 28.5a6.406 6.406 0 0 0 4.736-2.075 9.07 9.07 0 0 1 1.034-1.498.226.226 0 0 1 .047-.055z"/>
        <path fill="url(#b)" d="M33 23.5a7 7 0 1 1-.002 14.002A7 7 0 0 1 33 23.5"/>
        <path fill="url(#c)" d="M7 23.5a7 7 0 1 1-.002 14.002A7 7 0 0 1 7 23.5"/>
        <circle cx="10" cy="28" r="1" fill="#FFF"/>
        <circle cx="3.5" cy="32.5" r="1" fill="#D8D8D8"/>
        <circle cx="29.5" cy="32.5" r="1" fill="#D8D8D8"/>
        <circle cx="36" cy="28" r="1" fill="#FFF"/>
    </g>
</svg>
