<svg xmlns="http://www.w3.org/2000/svg" width="101" height="100" viewBox="0 0 101 100">
    <g fill="none" fill-rule="evenodd">
        <path fill="#D8D8D8" d="M0 0h101v100H0z"/>
        <path fill="#9B9B9B" d="M74.615 32.667h-7v11.445c1.231-.356 2.521-1.06 3.486-2.066 2.379-2.479 3.272-6.284 3.514-9.38zm-40.23 11.45v-11.45h-6.99c.216 2.476.984 6.775 3.502 9.39.968 1.005 2.257 1.708 3.488 2.06zm33.013 4.46C66.05 56.85 60.23 61.101 53.462 61.942v9.106h5.281a2.469 2.469 0 0 1 2.461 2.476A2.469 2.469 0 0 1 58.744 76H43.28a2.469 2.469 0 0 1-2.462-2.476 2.469 2.469 0 0 1 2.462-2.476h5.258v-9.106c-6.77-.841-12.576-5.098-13.924-13.37-2.7-.399-4.998-1.568-6.85-3.499-5.027-5.238-4.772-14.236-4.76-14.616.041-1.165.993-2.124 2.153-2.124h9.227v-1.857c0-1.367 1.054-2.476 2.413-2.476h28.428c1.359 0 2.39 1.109 2.39 2.476v1.857h9.225c1.16 0 2.112.958 2.153 2.124.013.38.265 9.378-4.761 14.616-1.848 1.925-4.147 3.101-6.835 3.504zm-7.69-1.895a2.503 2.503 0 0 0 .725-1.752c0-.65-.264-1.288-.726-1.752a2.445 2.445 0 0 0-3.476 0 2.476 2.476 0 0 0-.72 1.752c0 .65.258 1.288.72 1.752a2.47 2.47 0 0 0 1.74.724c.647 0 1.28-.266 1.736-.724zm-3.785-13.218a2.16 2.16 0 0 1 2.154-2.167c1.19 0 2.154.97 2.154 2.167v5.513a2.16 2.16 0 0 1-2.154 2.166 2.16 2.16 0 0 1-2.154-2.166v-5.513z"/>
    </g>
</svg>
