<?xml version="1.0" encoding="UTF-8"?>
<svg width="14px" height="16px" viewBox="0 0 14 16" version="1.1" xmlns="http://www.w3.org/2000/svg" xmlns:xlink="http://www.w3.org/1999/xlink">
    <!-- Generator: sketchtool 62 (101010) - https://sketch.com -->
    <title>91D88261-116F-4870-82B8-C7A98DE377A2</title>
    <desc>Created with sketchtool.</desc>
    <g id="Symbols" stroke="none" stroke-width="1" fill="none" fill-rule="evenodd">
        <g id="icon/locked" fill="#D8D8D8">
            <path d="M3,16 C1.34314575,16 2.02906125e-16,14.6568542 0,13 L0,8 C-1.5996974e-16,6.69374794 0.834850101,5.58248558 2.00008893,5.17067428 L2,4.70588235 C2,2.10689529 4.23857625,0 7,0 C9.76142375,0 12,2.10689529 12,4.70588235 L12.0009007,5.17102423 C13.1656226,5.58311485 14,6.69411778 14,8 L14,13 C14,14.6568542 12.6568542,16 11,16 L3,16 Z M7,8 C6.48716416,8 6.06449284,8.38604019 6.00672773,8.88337887 L6,9 L6,12 C6,12.5522847 6.44771525,13 7,13 C7.51283584,13 7.93550716,12.6139598 7.99327227,12.1166211 L8,12 L8,9 C8,8.44771525 7.55228475,8 7,8 Z M7,2 C5.40231912,2 4.09633912,3.1528492 4.00509269,4.60651743 L4,4.76923077 L4,5 L10,5 L10,4.76923077 C10,3.23982685 8.65685425,2 7,2 Z" id="Combined-Shape"></path>
        </g>
    </g>
</svg>