<?xml version="1.0" encoding="UTF-8"?>
<svg width="40px" height="40px" viewBox="0 0 40 40" version="1.1" xmlns="http://www.w3.org/2000/svg" xmlns:xlink="http://www.w3.org/1999/xlink">
    <!-- Generator: sketchtool 52.6 (67491) - http://www.bohemiancoding.com/sketch -->
    <title>970B7239-5809-4E68-A824-BF0724335FD9</title>
    <desc>Created with sketchtool.</desc>
    <defs>
        <linearGradient x1="83.2605699%" y1="50%" x2="0%" y2="100%" id="linearGradient-1">
            <stop stop-color="#FBB12E" offset="0%"></stop>
            <stop stop-color="#FFD31D" offset="100%"></stop>
        </linearGradient>
    </defs>
    <g id="Symbols" stroke="none" stroke-width="1" fill="none" fill-rule="evenodd">
        <g id="icon/qs_player">
            <g id="icon/player" transform="translate(3.000000, -2.000000)">
                <path d="M15.8064024,25.1935976 L18.1935976,25.1935976 C26.9232326,25.1935976 34,32.270365 34,41 L0,41 C-1.06907196e-15,32.270365 7.07676742,25.1935976 15.8064024,25.1935976 Z M17,23.5853659 C11.4771525,23.5853659 7,19.1082134 7,13.5853659 C7,8.06251836 11.4771525,3.58536585 17,3.58536585 C22.5228475,3.58536585 27,8.06251836 27,13.5853659 C27,19.1082134 22.5228475,23.5853659 17,23.5853659 Z" id="Combined-Shape" fill="url(#linearGradient-1)"></path>
                <path d="M23.8821089,14.4574021 C25.7304441,15.8002962 24.8537333,11.3392414 21.2519766,1.07423772 C20.1122487,2.27707542 19.5666725,4.13372958 19.6152478,6.64420022 C19.6881108,10.4099062 21.109606,12.4430609 23.8821089,14.4574021 Z" id="Oval" fill="#D8D8D8" transform="translate(22.217320, 7.882337) rotate(144.000000) translate(-22.217320, -7.882337) "></path>
                <path d="M12.5809139,15.4767914 C17.2836508,6.38271559 15.1670499,1.52987086 11.1730699,1.60860658 C8.68629399,4.82885626 8.93294554,6.23760075 9.11055689,9.3261517 C9.50795406,12.0439253 10.950187,14.0097107 12.5809139,15.4767914 Z" id="Oval" fill="#D8D8D8" transform="translate(12.137029, 8.542227) rotate(52.000000) translate(-12.137029, -8.542227) "></path>
                <path d="M24.962826,35.3548577 L25.4922378,35.3548577 L24.962826,34.8254459 L24.962826,35.3548577 Z M24.962826,35.3578305 L24.962826,35.8872422 L25.4922378,35.3578305 L24.962826,35.3578305 Z M20.7087905,35.3578305 L20.1793787,35.3578305 L20.7087905,35.8872422 L20.7087905,35.3578305 Z M20.7087905,35.3548577 L20.7087905,34.8254459 L20.1793787,35.3548577 L20.7087905,35.3548577 Z" id="Rectangle" stroke="#FFFFFF" stroke-width="1.05882353" fill="#D8D8D8"></path>
            </g>
        </g>
    </g>
</svg>