<?xml version="1.0" encoding="UTF-8"?>
<svg width="14px" height="14px" viewBox="0 0 14 14" version="1.1" xmlns="http://www.w3.org/2000/svg" xmlns:xlink="http://www.w3.org/1999/xlink">
    <!-- Generator: sketchtool 62 (101010) - https://sketch.com -->
    <title>B8107FDD-197F-4629-8B9B-9DCB98A207CA</title>
    <desc>Created with sketchtool.</desc>
    <g id="Symbols" stroke="none" stroke-width="1" fill="none" fill-rule="evenodd">
        <g id="icons/restarts" fill="#4A4A4A" fill-rule="nonzero">
            <path d="M9.67842541,1.70336572 C12.6708809,3.29448255 13.8358582,6.95572153 12.280475,9.88097186 C10.7250918,12.8062222 7.03834013,13.8877511 4.04588461,12.2966343 C3.81569572,12.1742407 3.72608208,11.8926069 3.84572694,11.6675877 C3.9653718,11.4425684 4.24896809,11.3593739 4.47915698,11.4817675 C7.01123472,12.8280971 10.1307939,11.9129572 11.4468873,9.43774542 C12.7629808,6.9625336 11.7772308,3.86456216 9.24515304,2.51823253 C6.91540348,1.27948272 4.08830804,1.95523185 2.6262393,3.99914268 L3.49835241,3.99929988 C3.74462113,3.99929988 3.94944232,4.17629888 3.99191779,4.40971139 L4,4.49964994 C4,4.74528168 3.822542,4.94957309 3.5885242,4.99193869 L3.49835241,5 L1.50164759,5 C1.25537887,5 1.05055768,4.82300101 1.00808221,4.5895885 L1,4.49964994 L1,2.50035006 C1,2.22401435 1.22459528,2 1.50164759,2 C1.74791631,2 1.9527375,2.17699899 1.99521297,2.4104115 L2.00329518,2.50035006 L2.00284984,3.25714965 C3.76803523,0.995623405 7.00111088,0.279812337 9.67842541,1.70336572 Z" id="Combined-Shape"></path>
        </g>
    </g>
</svg>