<svg xmlns="http://www.w3.org/2000/svg" width="101" height="100" viewBox="0 0 101 100">
    <g fill="none" fill-rule="evenodd">
        <path fill="#D8D8D8" d="M0 0h101v100H0z"/>
        <path fill="#9B9B9B" d="M39.423 29.989c10.506 1.493 18.613 10.26 18.723 20.859a18.539 18.539 0 0 1-7.711 1.415c-1.667-8.624-8.268-15.508-16.739-17.59a23.28 23.28 0 0 1 5.727-4.684m30.093 6.164a18.611 18.611 0 0 1-2.136 6.418c-1.319-6.18-5.11-11.487-10.317-14.89 5.04 1.371 9.402 4.401 12.453 8.472M51.74 71.282c1.2.189 2.401.288 3.597.288 1.893 0 3.768-.236 5.589-.682a22.936 22.936 0 0 1-7.694 2.132 13.04 13.04 0 0 1-1.492-1.738m-1.553-2.804a13.285 13.285 0 0 1-.913-4.05c1.52.305 3.039.457 4.542.457 7.99 0 15.51-4.156 19.963-10.897a22.998 22.998 0 0 1-4.06 9.574c-5.256 4.711-12.554 6.713-19.532 4.916m22.655-26.075a22.93 22.93 0 0 1 1.204 5.708c-3.759 10.143-14.3 16.151-24.708 13.842a13.124 13.124 0 0 1 1.553-4.812l.092.003c9.768 0 18.322-6.034 21.859-14.74m-7.477 3.114a18.894 18.894 0 0 1-4.826 4.125c-.62-10.158-7.818-18.612-17.49-21.366a22.977 22.977 0 0 1 6.474-1.355c8.581 2.37 15.031 9.704 15.842 18.596m-27.873 13.35a21.101 21.101 0 0 1 5.214-12.543 17.54 17.54 0 0 1 3.26 9.753c-2.437 5.385-2.062 11.64.908 16.677a22.972 22.972 0 0 1-6.817-2.383c-1.938-3.462-2.84-7.423-2.565-11.504m-9.621-8.943a22.982 22.982 0 0 1 2.762-10.878c.962.126 1.9.328 2.807.603a22.58 22.58 0 0 0-5.57 10.275m2.2 9.91c-1.39-6.924.596-14.22 5.849-19.225a17.747 17.747 0 0 1 5.22 3.812 23.528 23.528 0 0 0-6.076 14.282 23.22 23.22 0 0 0 1.183 9.095 23.263 23.263 0 0 1-6.175-7.964M51 22c-15.465 0-28 12.536-28 28 0 8.718 3.985 16.505 10.232 21.64.09.106.177.215.27.32l.064-.058A27.873 27.873 0 0 0 51 78c15.464 0 28-12.536 28-28S66.464 22 51 22"/>
    </g>
</svg>
