<svg xmlns="http://www.w3.org/2000/svg" width="24" height="24" viewBox="0 0 24 24">
    <g fill="none" fill-rule="evenodd">
        <circle cx="12" cy="12" r="12" fill="#FFD420"/>
        <path fill="#666" d="M7 9.008l-1.01.994L5 9.003l1-1 1 1.005zm12-.005l-1.003.999-1.02-.994 1.02-1.004L19 9.003zm-6-1l-.998 1.005-1.011-1.004L12 7 13 8.004zm1.625 4.531l3.372-1.533-.98 4.02v1.022c0 .957-.69.957-1.011.957H7.985c-.322 0-.986 0-.986-.957V15.02l-1.01-4.02 3.386 1.533 2.627-2.532 2.623 2.532z"/>
    </g>
</svg>
