<?xml version="1.0" encoding="UTF-8"?>
<svg width="34px" height="26px" viewBox="0 0 34 26" version="1.1" xmlns="http://www.w3.org/2000/svg" xmlns:xlink="http://www.w3.org/1999/xlink">
    <!-- Generator: Sketch 52.5 (67469) - http://www.bohemiancoding.com/sketch -->
    <title>jumpman</title>
    <desc>Created with Sketch.</desc>
    <g id="Symbols" stroke="none" stroke-width="1" fill="none" fill-rule="evenodd">
        <g id="bar/logo" transform="translate(-76.000000, -9.000000)" fill="#333333">
            <g id="header-logo">
                <path d="M109.536873,31.4130346 C109.903101,31.859082 110.179349,32.2387941 109.858941,32.3946657 C109.660387,32.491391 106.350388,32.3064365 105.472835,32.3920515 C104.393408,32.4962926 99.6430659,34.7458094 99.3538685,34.8226015 C99.064339,34.8980864 98.7190286,35.0274892 98.349148,34.9948117 C97.9792675,34.9608272 97.0316561,34.2556474 96.530292,33.8965221 C96.0285958,33.5370699 95.1759448,32.9024735 95.1759448,32.9024735 C95.1759448,32.9024735 93.087481,31.1251461 92.7086357,30.5810662 C92.2557478,29.9314382 92.0017455,29.1246315 91.8463558,28.6080008 C91.6906341,28.0926771 91.5498537,27.5070969 91.4299912,27.2884846 C91.3101286,27.0711795 89.7134001,25.2513713 89.4182261,24.8817892 C89.2332859,24.6507595 88.9261588,24.2873861 88.9261588,24.2873861 C88.9261588,24.2873861 88.8746943,24.2083066 88.8209056,24.1906608 C88.7770777,24.1779165 88.7020391,24.1981766 88.7020391,24.1981766 L78.0276318,28.2485486 L77.6564231,28.6508082 C77.6564231,28.6508082 77.5790603,28.743939 77.5113264,28.7766165 C77.4406041,28.8102743 77.3114448,28.8089672 77.3114448,28.8089672 L76.6706284,28.883145 C76.6706284,28.883145 76.3492241,29.0631979 76.2964314,29.0929344 C76.132077,29.1847581 75.84786,29.0694066 76.1002022,28.7625652 C76.3525444,28.4573576 77.0773642,27.7485834 77.0773642,27.7485834 C77.0773642,27.7485834 77.2885347,27.4731123 77.4402721,27.4355332 C77.5916774,27.3976274 78.5442692,27.1943735 78.779678,27.0760811 C79.0147547,26.9590958 85.5115704,23.2707901 85.5115704,23.2707901 C85.5115704,23.2707901 86.0517819,22.8031755 86.1221721,22.6825956 C86.1932263,22.5629961 88.2617684,21.4156902 88.5101262,21.3339966 C89.064283,21.1532902 89.2392624,21.0614665 89.382035,21.0176787 C89.5888892,20.9546112 90.5726917,20.4105314 90.6623396,20.3311251 C90.9439004,20.0811425 90.8403073,19.6700599 90.4471847,19.4076599 C90.1510146,19.2089809 89.7475991,19.0469006 89.7475991,19.0469006 C89.7475991,19.0469006 89.6423459,18.9991915 89.6051586,18.9374311 C89.5706275,18.8786117 89.6174437,18.7554176 89.6174437,18.7554176 C89.6174437,18.7554176 90.1908581,17.1418043 90.4242747,16.8150296 C90.6912262,16.441853 91.496065,15.5821088 92.6140074,15.9931913 C93.7312857,16.4039471 93.9663624,16.8588174 94.0214792,17.4028973 C94.053022,17.7159474 93.7329458,18.4887695 93.7329458,18.4887695 C93.7329458,18.4887695 93.7223209,18.5368054 93.7415786,18.5531441 C93.7618324,18.5691561 93.8096446,18.5456283 93.8096446,18.5456283 C93.8096446,18.5456283 97.2478071,16.5885748 97.4828838,16.4578649 C97.7548157,16.3072218 97.7418666,16.1689961 97.5220633,15.6549796 C97.4324154,15.4451902 96.1597474,13.4633018 96.1597474,13.4633018 C96.1597474,13.4633018 95.030184,13.6743983 94.7190726,13.8466085 C94.3452077,14.0528033 94.0540181,14.2286081 94.0540181,14.2286081 C94.0540181,14.2286081 93.7983556,13.9733971 94.0769281,13.7083828 C94.3558326,13.4430418 94.5494057,13.332592 94.5494057,13.332592 L93.7223209,12.4666391 C93.7223209,12.4666391 93.6605635,12.353575 93.6745087,12.2793972 C93.6927703,12.1777703 93.8634333,12.0908482 93.8634333,12.0908482 L94.7280374,11.7843336 C94.7280374,11.7843336 95.5411769,11.5291226 96.303516,12.0532691 C96.7172244,12.3372363 100.053454,15.5066239 100.053454,15.5066239 C100.053454,15.5066239 100.460522,15.8082369 99.9565015,16.3248676 C99.6410737,16.6790914 98.5158267,17.71366 98.2090317,18.0237692 C97.837491,18.3982529 96.0023655,20.303676 96.0023655,20.303676 C96.0023655,20.303676 95.8758624,20.4128188 95.8330306,20.5059496 C95.7975035,20.5814345 95.7878747,20.717046 95.7878747,20.717046 L95.5620948,23.1299502 C95.5620948,23.1299502 95.3499281,24.2583031 95.5899852,24.6667715 C95.8293783,25.0765469 97.6774529,26.3169835 98.0855168,26.8800163 C98.428503,27.3525325 100.319409,29.8183742 100.561127,30.1196604 C100.80218,30.4216002 101.089385,30.7156974 101.276982,30.7571978 C101.601706,30.8310489 103.12572,30.2830477 103.689174,30.2330512 C104.542821,30.1575663 105.325082,30.163775 105.586057,30.1686766 C105.8467,30.1725979 105.835411,30.1686766 105.992461,30.1438417 C106.405837,30.0758726 106.642574,29.5353873 106.96597,29.693873 C107.419854,29.9150995 108.252584,30.455258 108.578304,30.664067 C108.904025,30.8725492 109.237382,31.0473737 109.536873,31.4130346 Z M81.6869258,14.7036405 C80.0855489,14.6761914 78.8105567,13.3766085 78.8377831,11.8018814 C78.8660056,10.2271542 80.1858217,8.97299304 81.7868666,9.00044211 C83.3875795,9.02952505 84.6625716,10.3278008 84.6353453,11.9022012 C84.6074548,13.4772551 83.2869746,14.7301092 81.6869258,14.7036405 Z" id="jumpman"></path>
            </g>
        </g>
    </g>
</svg>