<svg xmlns="http://www.w3.org/2000/svg" width="32" height="32" viewBox="0 0 32 32">
    <defs>
        <linearGradient id="a" x1="100%" x2="0%" y1="100%" y2="2.136%">
            <stop offset="0%" stop-color="#FFD521"/>
            <stop offset="100%" stop-color="#FFEC42"/>
        </linearGradient>
        <linearGradient id="b" x1="0%" y1="0%" y2="100%">
            <stop offset="0%" stop-color="#FFD51D"/>
            <stop offset="100%" stop-color="#F7981F"/>
        </linearGradient>
    </defs>
    <g fill="none" fill-rule="evenodd">
        <path fill="url(#a)" d="M5 10h22v11.778c0 .675-.547 1.222-1.222 1.222H6.222A1.222 1.222 0 0 1 5 21.778V10z"/>
        <path fill="url(#b)" d="M6.222 8h19.556C26.453 8 27 8.547 27 9.222v1.32L16 17 5 10.542v-1.32C5 8.547 5.547 8 6.222 8z"/>
        <path fill="url(#b)" d="M6.222 15h19.556c.675 0 1.222.547 1.222 1.222v1.32L16 24 5 17.542v-1.32C5 15.547 5.547 15 6.222 15z" transform="rotate(-180 16 19.5)"/>
        <path stroke="#FFF" stroke-linecap="round" stroke-width="1.222" d="M6 10l6.234 4.764a6.111 6.111 0 0 0 7.38.031L26 10"/>
    </g>
</svg>
