<?xml version="1.0" encoding="UTF-8"?>
<svg width="18px" height="18px" viewBox="0 0 18 18" version="1.1" xmlns="http://www.w3.org/2000/svg" xmlns:xlink="http://www.w3.org/1999/xlink">
    <!-- Generator: Sketch 52.5 (67469) - http://www.bohemiancoding.com/sketch -->
    <title>icon/meter</title>
    <desc>Created with Sketch.</desc>
    <g id="icon/meter" stroke="none" stroke-width="1" fill="none" fill-rule="evenodd">
        <path d="M9.49030435,6.93962853 C9.82721739,6.97251922 10.1201522,6.70350282 10.1487609,6.34334156 C10.1773696,5.98318031 9.92902174,5.66621877 9.59423913,5.6352917 C9.39778261,5.61729182 9.19797826,5.60812825 9,5.60812825 C5.14026087,5.60812825 2,9.04234189 2,13.2636412 C2,13.6251116 2.27254348,13.9181824 2.60869565,13.9181824 C2.94484783,13.9181824 3.2173913,13.6251116 3.2173913,13.2636412 C3.2173913,9.76413711 5.8115,6.9172105 9,6.9172105 C9.16343478,6.9172105 9.3283913,6.92473772 9.49030435,6.93962853 M14.1131957,8.0350031 C13.8856957,7.76893213 13.5006957,7.75158679 13.2531087,7.99622154 C13.0056739,8.24101992 12.9895435,8.65501718 13.2170435,8.92108815 C14.2267174,10.1017167 14.7826087,11.6438156 14.7826087,13.2636412 C14.7826087,13.6251116 15.0551522,13.9181824 15.3913043,13.9181824 C15.7274565,13.9181824 16,13.6251116 16,13.2636412 C16,11.314745 15.3299783,9.4579755 14.1131957,8.0350031 M13.0806957,6.04634353 L10.1323261,12.8807347 C9.87226087,13.5820755 9.4193913,14 8.91721739,14 C8.51,14 8.15178261,13.7771287 7.95897826,13.4038767 C7.74273913,12.9852976 7.76586957,12.4533193 8.0193913,12.015104 L8.0193913,12.015104 L11.8780652,5.34745724 C12.0695,5.01691398 12.4668261,4.90367836 12.7851739,5.08858623 C13.1035217,5.27365773 13.2330217,5.69321859 13.0806957,6.04634353" id="meter" fill="#4A4A4A"></path>
    </g>
</svg>