<?xml version="1.0" encoding="UTF-8"?>
<svg width="20px" height="21px" viewBox="0 0 20 21" version="1.1" xmlns="http://www.w3.org/2000/svg" xmlns:xlink="http://www.w3.org/1999/xlink">
    <!-- Generator: sketchtool 59.1 (101010) - https://sketch.com -->
    <title>42095B0C-015E-448E-BE29-0AC8A6637D0B</title>
    <desc>Created with sketchtool.</desc>
    <defs>
        <linearGradient x1="90.5%" y1="100%" x2="9.5%" y2="0%" id="linearGradient-1">
            <stop stop-color="#FBB12E" offset="0%"></stop>
            <stop stop-color="#FFD31D" offset="100%"></stop>
        </linearGradient>
        <linearGradient x1="118.403144%" y1="50%" x2="-19.6518594%" y2="50%" id="linearGradient-2">
            <stop stop-color="#FFD521" offset="0%"></stop>
            <stop stop-color="#FFEC42" offset="100%"></stop>
        </linearGradient>
    </defs>
    <g id="Concepts-2" stroke="none" stroke-width="1" fill="none" fill-rule="evenodd">
        <g id="Create-League-Division-view-" transform="translate(-360.000000, -662.000000)">
            <g id="bar/line_item" transform="translate(344.000000, 655.000000)">
                <g id="Group" transform="translate(16.000000, 3.500000)">
                    <g id="icon/players-max" transform="translate(0.000000, 3.000000)">
                        <g id="Group" transform="translate(1.250000, 4.750000)">
                            <path d="M5.78125,8.28125 C8.7278912,8.28125 11.1302236,10.6117131 11.2456576,13.5300497 L11.25,13.75 L0,13.75 C-3.69880958e-16,10.7296928 2.44844277,8.28125 5.46875,8.28125 L5.78125,8.28125 Z M5.625,1.25 C7.35088984,1.25 8.75,2.64911016 8.75,4.375 C8.75,6.10088984 7.35088984,7.5 5.625,7.5 C3.89911016,7.5 2.5,6.10088984 2.5,4.375 C2.5,2.64911016 3.89911016,1.25 5.625,1.25 Z" id="Combined-Shape" fill="url(#linearGradient-1)"></path>
                            <path d="M7.75811051,4.74916366 C8.33571527,5.16881807 8.08619852,3.75827436 7.00956028,0.517532499 C6.65937615,0.903758817 6.48428408,1.49957961 6.48428408,2.30499487 C6.48428408,3.51311776 6.89170338,4.11968203 7.75811051,4.74916366 Z" id="Oval" fill="#D8D8D8" transform="translate(7.272457, 2.669432) rotate(144.000000) translate(-7.272457, -2.669432) "></path>
                            <path d="M4.29630115,5.05871734 C5.7466675,2.20178757 5.03791547,0.648307653 3.75830388,0.648307653 C2.98141992,1.65481812 3.06928815,2.10348055 3.14553874,3.08486208 C3.28991263,3.94993835 3.76446008,4.58287969 4.29630115,5.05871734 Z" id="Oval" fill="#D8D8D8" transform="translate(4.099825, 2.853512) rotate(52.000000) translate(-4.099825, -2.853512) "></path>
                            <rect id="Rectangle" stroke="#FFFFFF" fill="#D8D8D8" x="6.1875" y="11.5625" width="2" height="1"></rect>
                        </g>
                        <path d="M14.2778293,9.14512471 L15.4105339,10.2775339 L16.5432385,9.14512471 C16.8560262,8.83233697 17.3631554,8.83233697 17.6759431,9.14512471 C17.9887308,9.45791245 17.9887308,9.96504157 17.6759431,10.2778293 L16.5435339,11.4105339 L17.6759431,12.5432385 C17.9887308,12.8560262 17.9887308,13.3631554 17.6759431,13.6759431 C17.3631554,13.9887308 16.8560262,13.9887308 16.5432385,13.6759431 L15.4105339,12.5435339 L14.2778293,13.6759431 C13.9650416,13.9887308 13.4579124,13.9887308 13.1451247,13.6759431 C12.832337,13.3631554 12.832337,12.8560262 13.1451247,12.5432385 L14.2775339,11.4105339 L13.1451247,10.2778293 C12.832337,9.96504157 12.832337,9.45791245 13.1451247,9.14512471 C13.4579124,8.83233697 13.9650416,8.83233697 14.2778293,9.14512471 Z" id="Combined-Shape" fill="url(#linearGradient-2)" transform="translate(15.410534, 11.410534) rotate(-315.000000) translate(-15.410534, -11.410534) "></path>
                    </g>
                </g>
            </g>
        </g>
    </g>
</svg>