<svg xmlns="http://www.w3.org/2000/svg" width="40" height="40" viewBox="0 0 40 40">
    <defs>
        <linearGradient id="a" x1="0%" y1="50%" y2="50%">
            <stop offset="0%" stop-color="#FFD51D"/>
            <stop offset="100%" stop-color="#F7981F"/>
        </linearGradient>
    </defs>
    <g fill="none" fill-rule="evenodd">
        <path fill="#D8D8D8" d="M34.752 31.094c5.194-7.148 3.61-17.154-3.54-22.348.1.016 3.739 9.233-2.723 18.126-6.461 8.894-16.037 7.835-16.085 7.762 7.148 5.194 17.154 3.61 22.348-3.54z"/>
        <path fill="url(#a)" d="M12.253 6.66c7.296 1.03 12.926 7.073 13.002 14.38a12.956 12.956 0 0 1-5.355.975C18.743 16.07 14.16 11.325 8.277 9.89a16.143 16.143 0 0 1 3.976-3.23m20.279 3.904a12.157 12.157 0 0 1-1.387 4.182c-.856-4.028-3.318-7.485-6.698-9.702a15.057 15.057 0 0 1 8.085 5.52M20.404 34.448c.845.143 1.691.218 2.533.218 1.333 0 2.653-.179 3.935-.517a15.27 15.27 0 0 1-5.417 1.617 9.73 9.73 0 0 1-1.05-1.318m-.985-1.56c-.36-.9-.568-1.85-.633-2.811 1.053.211 2.106.317 3.147.317 5.536 0 10.746-2.885 13.832-7.564a15.978 15.978 0 0 1-2.812 6.645c-3.643 3.27-8.7 4.66-13.534 3.412m15.518-18.142c.435 1.242.717 2.554.828 3.914-2.583 6.956-9.827 11.076-16.979 9.492.137-1.14.49-2.259 1.068-3.3l.063.003c6.712 0 12.59-4.139 15.02-10.11m-4.832 2.063a12.946 12.946 0 0 1-3.322 2.789c-.426-6.868-5.381-12.584-12.04-14.445 1.405-.506 2.901-.82 4.458-.917 5.906 1.603 10.347 6.561 10.904 12.573m-19.37 9.613a14.064 14.064 0 0 1 3.575-8.441 11.659 11.659 0 0 1 2.236 6.564 12.031 12.031 0 0 0 .623 11.223 15.957 15.957 0 0 1-4.675-1.603 13.658 13.658 0 0 1-1.76-7.743m-6.501-6.824c.01-2.631.734-5.109 2.005-7.277.698.084 1.38.22 2.038.403-2.026 1.966-3.378 4.342-4.043 6.874m1.111 7.489c-.977-4.736.419-9.726 4.112-13.149a12.467 12.467 0 0 1 3.67 2.607c-2.514 2.698-4.017 6.105-4.272 9.768a15.48 15.48 0 0 0 .832 6.22 15.978 15.978 0 0 1-4.342-5.446M1 20c0 5.916 2.704 11.2 6.943 14.684.041.048.117.108.227.178A18.914 18.914 0 0 0 20 39c10.493 0 19-8.507 19-19S30.493 1 20 1C9.506 1 1 9.507 1 20z"/>
        <circle cx="31" cy="6" r="1" fill="#FFF"/>
        <circle cx="9.5" cy="34.5" r="1" fill="#D8D8D8"/>
    </g>
</svg>
