<?xml version="1.0" encoding="UTF-8"?>
<svg width="18px" height="18px" viewBox="0 0 18 18" version="1.1" xmlns="http://www.w3.org/2000/svg" xmlns:xlink="http://www.w3.org/1999/xlink">
    <!-- Generator: Sketch 52.5 (67469) - http://www.bohemiancoding.com/sketch -->
    <title>icon/results</title>
    <desc>Created with Sketch.</desc>
    <g id="icon/results" stroke="none" stroke-width="1" fill="none" fill-rule="evenodd">
        <path d="M3.28111807,4 L14.732666,4 C15.4401635,4 16.0137841,4.44775 16.0137841,5 C16.0137841,5.55225 15.4401635,6 14.732666,6 L3.28111807,6 C2.57362061,6 2,5.55225 2,5 C2,4.44775 2.57362061,4 3.28111807,4 Z M3.28111807,8 L14.732666,8 C15.4401635,8 16.0137841,8.44775 16.0137841,9 C16.0137841,9.55225 15.4401635,10 14.732666,10 L3.28111807,10 C2.57362061,10 2,9.55225 2,9 C2,8.44775 2.57362061,8 3.28111807,8 Z M3.38464355,12 L14.732666,12 C15.4276976,12 15.9912113,12.44775 15.9912113,13 C15.9912113,13.55225 15.4276976,14 14.732666,14 L3.38464355,14 C2.68961195,14 2.12609832,13.55225 2.12609832,13 C2.12609832,12.44775 2.68961195,12 3.38464355,12 Z" id="blog" fill="#4A4A4A"></path>
    </g>
</svg>