<svg xmlns="http://www.w3.org/2000/svg" width="32" height="32" viewBox="0 0 32 32">
    <defs>
        <linearGradient id="a" x1="100%" x2="50%" y1="98.273%" y2="0%">
            <stop offset="0%" stop-color="#FFD521"/>
            <stop offset="100%" stop-color="#FFEC42"/>
        </linearGradient>
        <linearGradient id="b" x1="37.428%" x2="62.572%" y1="0%" y2="100%">
            <stop offset="0%" stop-color="#FFD51D"/>
            <stop offset="100%" stop-color="#F7981F"/>
        </linearGradient>
    </defs>
    <g fill="none" fill-rule="evenodd">
        <circle cx="16" cy="16" r="12" fill="url(#a)"/>
        <path fill="url(#b)" d="M16 28c.02-.024.067-5.884 0-12-.064-5.88.006-12.028 0-12C9.373 4 4 9.373 4 16s5.373 12 12 12z"/>
        <path stroke="#FFF" d="M25 16a9 9 0 0 0-18 0"/>
        <circle cx="16" cy="20" r="2" fill="#4A4A4A"/>
        <circle cx="10" cy="20" r="1" fill="#D8D8D8"/>
        <circle cx="22" cy="20" r="1" fill="#D8D8D8"/>
        <path fill="#FFF" d="M7 15h2v1H7zM23 15h2v1h-2zM21 10.414L22.415 9l.707.707-1.414 1.414zM11.12 10.414L9.708 9 9 9.707l1.414 1.414zM16 7h1v2h-1z"/>
        <rect width="7" height="2" x="14.682" y="17.182" fill="#4A4A4A" rx="1" transform="rotate(-45 18.182 18.182)"/>
    </g>
</svg>
