<?xml version="1.0" encoding="UTF-8"?>
<svg width="32px" height="32px" viewBox="0 0 32 32" version="1.1" xmlns="http://www.w3.org/2000/svg" xmlns:xlink="http://www.w3.org/1999/xlink">
    <!-- Generator: Sketch 52.5 (67469) - http://www.bohemiancoding.com/sketch -->
    <title>icon/tag</title>
    <desc>Created with Sketch.</desc>
    <defs>
        <linearGradient x1="50%" y1="2.13601879%" x2="50%" y2="100%" id="linearGradient-1">
            <stop stop-color="#FFD521" offset="0%"></stop>
            <stop stop-color="#FFEC42" offset="100%"></stop>
        </linearGradient>
        <linearGradient x1="0%" y1="100%" x2="100%" y2="0%" id="linearGradient-2">
            <stop stop-color="#FFD51D" offset="0%"></stop>
            <stop stop-color="#F7981F" offset="100%"></stop>
        </linearGradient>
    </defs>
    <g id="icon/tag" stroke="none" stroke-width="1" fill="none" fill-rule="evenodd">
        <g id="Group-2" transform="translate(16.000000, 15.909903) rotate(-45.000000) translate(-16.000000, -15.909903) translate(6.000000, 3.409903)">
            <path d="M7.23602946,10.0245834 L10.6670688,7.46935369 C11.2911004,7.00461289 12.1470298,7.00769769 12.7676953,7.47692444 L16.1369692,10.0241152 C16.7932311,10.520253 17.1789322,11.295365 17.1789322,12.1180633 L17.1789322,21.0600288 C17.1789322,22.5097763 16.0036797,23.6850288 14.5539322,23.6850288 L8.80393219,23.6850288 C7.35418472,23.6850288 6.17893219,22.5097763 6.17893219,21.0600288 L6.17893219,12.1298877 C6.17893219,11.3005311 6.57086832,10.519955 7.23602946,10.0245834 Z M12.386039,10.5281746 C12.9383237,10.5281746 13.386039,10.0804593 13.386039,9.52817459 C13.386039,8.97588984 12.9383237,8.52817459 12.386039,8.52817459 C11.8337542,8.52817459 11.386039,8.97588984 11.386039,9.52817459 C11.386039,10.0804593 11.8337542,10.5281746 12.386039,10.5281746 Z" id="Combined-Shape" fill="url(#linearGradient-1)" transform="translate(11.678932, 15.403959) rotate(-15.000000) translate(-11.678932, -15.403959) "></path>
            <path d="M0.816173329,3.87313202 L5.75273452,0.25981841 C6.52672347,-0.306702433 7.57949369,-0.302927054 8.34939954,0.269130407 L13.2015044,3.87435403 C13.9791203,4.45214029 14.4375,5.36378808 14.4375,6.33256233 L14.4375,18.4903846 C14.4375,20.1817567 13.066372,21.5528846 11.375,21.5528846 L2.625,21.5528846 C0.933627954,21.5528846 -0.4375,20.1817567 -0.4375,18.4903846 L-0.4375,6.34437712 C-0.4375,5.36786577 0.0281900254,4.44989602 0.816173329,3.87313202 Z M7.45500004,4.13420012 C7.95064087,4.13420012 8.34750007,3.74841138 8.34750007,3.27880068 C8.34750007,2.80918997 7.95064087,2.42340123 7.45500004,2.42340123 C6.9593592,2.42340123 6.5625,2.80918997 6.5625,3.27880068 C6.5625,3.74841138 6.9593592,4.13420012 7.45500004,4.13420012 Z" id="Combined-Shape" stroke="#FFFFFF" stroke-width="0.875" fill="url(#linearGradient-2)"></path>
            <rect id="Rectangle" fill="#D8D8D8" x="2.625" y="11.7588757" width="1" height="3.40236686"></rect>
            <rect id="Rectangle" fill="#FFFFFF" x="2.625" y="16.862426" width="1.75" height="1.70118343"></rect>
        </g>
        <rect id="Rectangle" stroke="#4A4A4A" fill="#D8D8D8" x="7.59009742" y="4.5" width="1" height="6"></rect>
    </g>
</svg>