<?xml version="1.0" encoding="UTF-8"?>
<svg width="44px" height="44px" viewBox="0 0 44 44" version="1.1" xmlns="http://www.w3.org/2000/svg" xmlns:xlink="http://www.w3.org/1999/xlink">
    <!-- Generator: sketchtool 61.1 (101010) - https://sketch.com -->
    <title>14A2EC95-5F0C-4296-854B-705CE8F3A69D</title>
    <desc>Created with sketchtool.</desc>
    <g id="Concepts-2" stroke="none" stroke-width="1" fill="none" fill-rule="evenodd">
        <g id="Teams/Merge-Set-Up" transform="translate(-571.000000, -273.000000)">
            <g id="Team-1-box-Copy-2" transform="translate(523.000000, 236.000000)">
                <g id="icons/team_add" transform="translate(48.000000, 37.000000)">
                    <g id="team_add">
                        <circle id="Oval" stroke="#FFFFFF" fill="#D8D8D8" cx="22" cy="22" r="22.5"></circle>
                        <path d="M22,18 C22.5522847,18 23,18.4477153 23,19 L23,21 L25,21 C25.5522847,21 26,21.4477153 26,22 C26,22.5522847 25.5522847,23 25,23 L23,23 L23,25 C23,25.5522847 22.5522847,26 22,26 C21.4477153,26 21,25.5522847 21,25 L20.999,23 L19,23 C18.4477153,23 18,22.5522847 18,22 C18,21.4477153 18.4477153,21 19,21 L21,21 L21,19 C21,18.4477153 21.4477153,18 22,18 Z" id="Combined-Shape" fill="#9B9B9B"></path>
                    </g>
                </g>
            </g>
        </g>
    </g>
</svg>