<?xml version="1.0" encoding="UTF-8"?>
<svg width="20px" height="21px" viewBox="0 0 20 21" version="1.1" xmlns="http://www.w3.org/2000/svg" xmlns:xlink="http://www.w3.org/1999/xlink">
    <!-- Generator: sketchtool 59.1 (101010) - https://sketch.com -->
    <title>EEE5C23F-A150-4893-A02C-286634CB7952</title>
    <desc>Created with sketchtool.</desc>
    <defs>
        <linearGradient x1="100%" y1="95.3787667%" x2="5.32575335%" y2="2.13601879%" id="linearGradient-1">
            <stop stop-color="#FFD521" offset="0%"></stop>
            <stop stop-color="#FFEC42" offset="100%"></stop>
        </linearGradient>
        <linearGradient x1="0%" y1="81.4941406%" x2="100%" y2="0%" id="linearGradient-2">
            <stop stop-color="#FFD51D" offset="0%"></stop>
            <stop stop-color="#F7981F" offset="100%"></stop>
        </linearGradient>
        <linearGradient x1="33.6734694%" y1="0%" x2="66.3265306%" y2="100%" id="linearGradient-3">
            <stop stop-color="#FFD51D" offset="0%"></stop>
            <stop stop-color="#F7981F" offset="100%"></stop>
        </linearGradient>
        <linearGradient x1="48.185941%" y1="100%" x2="51.814059%" y2="0%" id="linearGradient-4">
            <stop stop-color="#FFD51D" offset="0%"></stop>
            <stop stop-color="#F7981F" offset="100%"></stop>
        </linearGradient>
    </defs>
    <g id="Concepts-2" stroke="none" stroke-width="1" fill="none" fill-rule="evenodd">
        <g id="Create-League-Division-view-edit-" transform="translate(-360.000000, -702.000000)">
            <g id="bar/line_item_selected" transform="translate(344.000000, 695.000000)">
                <g id="Group" transform="translate(16.000000, 3.500000)">
                    <g id="icon/whistle" transform="translate(0.000000, 3.000000)">
                        <path d="M7.1875,4.25219918 C6.04962727,4.25219918 5.12719918,5.17462727 5.12719918,6.3125 C5.12719918,7.45037273 6.04962727,8.37280082 7.1875,8.37280082 C8.32537273,8.37280082 9.24780082,7.45037273 9.24780082,6.3125 C9.24780082,5.17462727 8.32537273,4.25219918 7.1875,4.25219918 Z" id="Rectangle" stroke="url(#linearGradient-1)" stroke-width="1.50439835" transform="translate(7.187500, 6.312500) rotate(-30.000000) translate(-7.187500, -6.312500) "></path>
                        <path d="M6.875,7.25 C9.29124578,7.25 11.25,9.20875422 11.25,11.625 C11.25,14.0412458 9.29124578,16 6.875,16 C4.45875422,16 2.5,14.0412458 2.5,11.625 C2.5,9.20875422 4.45875422,7.25 6.875,7.25 Z" id="Rectangle" fill="url(#linearGradient-2)" transform="translate(6.875000, 11.625000) rotate(-30.000000) translate(-6.875000, -11.625000) "></path>
                        <polygon id="Rectangle" fill="url(#linearGradient-3)" transform="translate(11.250000, 11.312500) rotate(-30.000000) translate(-11.250000, -11.312500) " points="15 17.875 7.5 17.875 7.5 4.75 14.9938672 4.75"></polygon>
                        <polygon id="Rectangle" fill="url(#linearGradient-4)" transform="translate(9.375000, 12.562500) rotate(-30.000000) translate(-9.375000, -12.562500) " points="10.625 19.125 8.125 19.125 8.125 6 10.6229557 6"></polygon>
                        <polygon id="Rectangle" fill="#4A4A4A" transform="translate(10.937500, 8.812500) rotate(-30.000000) translate(-10.937500, -8.812500) " points="9.375 8.5 12.5 8.5 12.5 9.125 9.375 9.125"></polygon>
                        <polygon id="Rectangle" fill="#FFFFFF" transform="translate(4.062500, 10.687500) rotate(-30.000000) translate(-4.062500, -10.687500) " points="3.75 10.375 4.375 10.375 4.375 11 3.75 11"></polygon>
                        <polygon id="Rectangle" fill="#D8D8D8" transform="translate(12.187500, 7.562500) rotate(-30.000000) translate(-12.187500, -7.562500) " points="11.9160843 7.25 12.4589157 7.25175287 12.4515475 7.87418086 11.9312375 7.875"></polygon>
                    </g>
                </g>
            </g>
        </g>
    </g>
</svg>